<?xml version="1.0" standalone="no"?>
<!DOCTYPE svg PUBLIC "-//W3C//DTD SVG 1.1//EN" "http://www.w3.org/Graphics/SVG/1.1/DTD/svg11.dtd" >
<!--
2013-9-30: Created.
-->
<svg>
<metadata>
Created by iconfont
</metadata>
<defs>

<font id="weatherfont" horiz-adv-x="1024" >
  <font-face
    font-family="weatherfont"
    font-weight="500"
    font-stretch="normal"
    units-per-em="1024"
    ascent="896"
    descent="-128"
  />
    <missing-glyph />
    
    <glyph glyph-name="x" unicode="x" horiz-adv-x="1001"
d="M281 543q-27 -1 -53 -1h-83q-18 0 -36.5 -6t-32.5 -18.5t-23 -32t-9 -45.5v-76h912v41q0 16 -0.5 30t-0.5 18q0 13 -5 29t-17 29.5t-31.5 22.5t-49.5 9h-133v-97h-438v97zM955 310v-52q0 -23 0.5 -52t0.5 -58t-10.5 -47.5t-26 -30t-33 -16t-31.5 -4.5q-14 -1 -29.5 -0.5
t-29.5 0.5h-32l-45 128h-439l-44 -128h-29h-34q-20 0 -45 1q-25 0 -41 9.5t-25.5 23t-13.5 29.5t-4 30v167h911zM163 247q-12 0 -21 -8.5t-9 -21.5t9 -21.5t21 -8.5q13 0 22 8.5t9 21.5t-9 21.5t-22 8.5zM316 123q-8 -26 -14 -48q-5 -19 -10.5 -37t-7.5 -25t-3 -15t1 -14.5
t9.5 -10.5t21.5 -4h37h67h81h80h64h36q23 0 34 12t2 38q-5 13 -9.5 30.5t-9.5 34.5q-5 19 -11 39h-368zM336 498v228q0 11 2.5 23t10 21.5t20.5 15.5t34 6h188q31 0 51.5 -14.5t20.5 -52.5v-227h-327z" />
    

    
    <glyph glyph-name="yin" unicode="&#58924;" d="M669.33333333 681.6c-118.50666667 0.64-222.4-62.93333333-278.72-157.86666667-30.93333333 13.86666667-65.17333333 21.65333333-101.22666666 21.97333334-141.01333333 1.28-255.36-111.36-256-252.37333334-0.10666667-13.54666667 0.96-26.88 2.88-39.89333333 0.21333333-1.38666667 0.42666667-2.88 0.64-4.26666667 16-93.97333333 98.45333333-162.24 193.81333333-162.24H735.46666667c104.21333333 0 198.18666667 64.32 234.02666666 162.13333334 0.53333333 1.38666667 1.06666667 2.88 1.6 4.37333333 11.73333333 33.38666667 18.13333333 69.22666667 18.13333334 106.56 0 177.17333333-142.50666667 320.53333333-319.89333334 321.6z"  horiz-adv-x="1024" />

    
    <glyph glyph-name="xiaoyu" unicode="&#58925;" d="M670.4 861.86666667c-118.61333333 0.64-222.4-62.82666667-278.72-157.86666667-30.93333333 13.86666667-65.17333333 21.65333333-101.22666667 21.97333333-141.01333333 1.38666667-255.36-111.25333333-256.10666666-252.26666666-0.10666667-13.54666667 0.96-26.88 2.88-39.89333334 0.21333333-1.38666667 0.42666667-2.88 0.64-4.26666666 16-93.97333333 98.45333333-162.24 193.81333333-162.24H736.42666667c104.21333333 0 198.18666667 64.32 234.02666666 162.13333333 0.53333333 1.38666667 1.06666667 2.88 1.6 4.37333333 11.73333333 33.38666667 18.13333333 69.22666667 18.13333334 106.56 0.10666667 177.17333333-142.50666667 320.53333333-319.78666667 321.49333334zM284.90666667 70.18666667000002c-14.08-25.49333333-46.08-34.66666667-71.57333334-20.69333334s-34.66666667 46.08-20.69333333 71.57333334c14.08 25.49333333 110.29333333 90.98666667 110.29333333 90.98666666s-4.05333333-116.37333333-18.02666666-141.86666666zM553.70666667 70.18666667000002c-14.08-25.49333333-46.08-34.66666667-71.57333334-20.69333334s-34.66666667 46.08-20.69333333 71.57333334c14.08 25.49333333 110.29333333 90.98666667 110.29333333 90.98666666s-4.05333333-116.37333333-18.02666666-141.86666666zM822.4 70.18666667000002c-14.08-25.49333333-46.08-34.66666667-71.57333333-20.69333334-25.49333333 14.08-34.66666667 46.08-20.69333334 71.57333334 14.08 25.49333333 110.29333333 90.98666667 110.29333334 90.98666666s-3.94666667-116.37333333-18.02666667-141.86666666z"  horiz-adv-x="1024" />

    
    <glyph glyph-name="xiaoyu1" unicode="&#58926;" d="M670.4 861.86666667c-118.61333333 0.64-222.4-62.82666667-278.72-157.86666667-30.93333333 13.86666667-65.17333333 21.65333333-101.22666667 21.97333333-141.01333333 1.38666667-255.36-111.25333333-256.10666666-252.26666666-0.10666667-13.54666667 0.96-26.88 2.88-39.89333334 0.21333333-1.38666667 0.42666667-2.88 0.64-4.26666666 16-93.97333333 98.45333333-162.24 193.81333333-162.24H736.42666667c104.21333333 0 198.18666667 64.32 234.02666666 162.13333333 0.53333333 1.38666667 1.06666667 2.88 1.6 4.37333333 11.73333333 33.38666667 18.13333333 69.22666667 18.13333334 106.56 0.10666667 177.17333333-142.50666667 320.53333333-319.78666667 321.49333334zM553.38666667 70.18666667000002c-14.08-25.49333333-46.08-34.66666667-71.57333334-20.69333334-25.49333333 14.08-34.66666667 46.08-20.69333333 71.57333334 14.08 25.49333333 110.29333333 90.98666667 110.29333333 90.98666666s-3.94666667-116.37333333-18.02666666-141.86666666z"  horiz-adv-x="1024" />

    
    <glyph glyph-name="zhongyu" unicode="&#58927;" d="M670.4 861.86666667c-118.61333333 0.64-222.4-62.82666667-278.72-157.86666667-30.93333333 13.86666667-65.17333333 21.65333333-101.22666667 21.97333333-141.01333333 1.38666667-255.36-111.25333333-256.10666666-252.26666666-0.10666667-13.54666667 0.96-26.88 2.88-39.89333334 0.21333333-1.38666667 0.42666667-2.88 0.64-4.26666666 16-93.97333333 98.45333333-162.24 193.81333333-162.24H736.42666667c104.21333333 0 198.18666667 64.32 234.02666666 162.13333333 0.53333333 1.38666667 1.06666667 2.88 1.6 4.37333333 11.73333333 33.38666667 18.13333333 69.22666667 18.13333334 106.56 0.10666667 177.17333333-142.50666667 320.53333333-319.78666667 321.49333334zM417.17333333 70.18666667000002c-14.08-25.49333333-46.08-34.66666667-71.57333333-20.69333334s-34.66666667 46.08-20.69333333 71.57333334c14.08 25.49333333 110.29333333 90.98666667 110.29333333 90.98666666s-3.94666667-116.37333333-18.02666667-141.86666666zM685.97333333 70.18666667000002c-14.08-25.49333333-46.08-34.66666667-71.57333333-20.69333334-25.49333333 14.08-34.66666667 46.08-20.69333333 71.57333334 14.08 25.49333333 110.29333333 90.98666667 110.29333333 90.98666666s-3.94666667-116.37333333-18.02666667-141.86666666z"  horiz-adv-x="1024" />

    
    <glyph glyph-name="qing" unicode="&#58933;" d="M513.06666667 382.72m-477.01333334 0a477.01333333 477.01333333 0 1 1 954.02666667 0 477.01333333 477.01333333 0 1 1-954.02666667 0ZM513.06666667 382.72m-300.69333334 0a300.69333333 300.69333333 0 1 1 601.38666667 0 300.69333333 300.69333333 0 1 1-601.38666667 0Z"  horiz-adv-x="1024" />

    
    <glyph glyph-name="duoyun-copy" unicode="&#58937;" d="M298.24 522.56m-248.85333333 0a248.85333333 248.85333333 0 1 1 497.70666666 0 248.85333333 248.85333333 0 1 1-497.70666666 0ZM298.24 522.56m-156.90666667 0a156.90666667 156.90666667 0 1 1 313.81333334 0 156.90666667 156.90666667 0 1 1-313.81333334 0ZM669.33333333 591.1466666700001c-118.61333333 0.64-222.4-62.82666667-278.72-157.86666667-30.93333333 13.86666667-65.17333333 21.65333333-101.22666666 21.97333333-141.01333333 1.28-255.36-111.36-256-252.37333333-0.10666667-13.54666667 0.96-26.88 2.88-39.89333333 0.21333333-1.38666667 0.42666667-2.88 0.64-4.26666667 16-93.97333333 98.45333333-162.24 193.81333333-162.24H735.46666667c104.21333333 0 198.18666667 64.32 234.02666666 162.13333333 0.53333333 1.38666667 1.06666667 2.88 1.6 4.37333334 11.73333333 33.38666667 18.13333333 69.22666667 18.13333334 106.56 0 177.17333333-142.50666667 320.64-319.89333334 321.6z"  horiz-adv-x="1024" />

    
    <glyph glyph-name="leizhenyu-copy" unicode="&#58939;" d="M670.4 861.86666667c-118.61333333 0.64-222.4-62.82666667-278.72-157.86666667-30.93333333 13.86666667-65.17333333 21.65333333-101.22666667 21.97333333-141.01333333 1.38666667-255.36-111.25333333-256.10666666-252.26666666-0.10666667-13.54666667 0.96-26.88 2.88-39.89333334 0.21333333-1.38666667 0.42666667-2.88 0.64-4.26666666 16-93.97333333 98.45333333-162.24 193.81333333-162.24H736.42666667c104.21333333 0 198.18666667 64.32 234.02666666 162.13333333 0.53333333 1.38666667 1.06666667 2.88 1.6 4.37333333 11.73333333 33.38666667 18.13333333 69.22666667 18.13333334 106.56 0.10666667 177.17333333-142.50666667 320.53333333-319.78666667 321.49333334zM284.90666667 70.18666667000002c-14.08-25.49333333-46.08-34.66666667-71.57333334-20.69333334s-34.66666667 46.08-20.69333333 71.57333334c14.08 25.49333333 110.29333333 90.98666667 110.29333333 90.98666666s-4.05333333-116.37333333-18.02666666-141.86666666zM822.4 70.18666667000002c-14.08-25.49333333-46.08-34.66666667-71.57333333-20.69333334-25.49333333 14.08-34.66666667 46.08-20.69333334 71.57333334 14.08 25.49333333 110.29333333 90.98666667 110.29333334 90.98666666s-3.94666667-116.37333333-18.02666667-141.86666666zM565.97333333 143.89333333000002h-46.08l5.54666667 68.16-67.41333333-100.90666666h46.08l-5.54666667-68.16z"  horiz-adv-x="1024" />

    
    <glyph glyph-name="daxue-copy" unicode="&#58942;" d="M669.33333333 858.34666667c-118.61333333 0.64-222.4-62.82666667-278.72-157.86666667-30.93333333 13.86666667-65.17333333 21.65333333-101.22666666 21.97333333-141.01333333 1.38666667-255.36-111.25333333-256-252.37333333-0.10666667-13.54666667 0.96-26.88 2.88-39.89333333 0.21333333-1.38666667 0.42666667-2.88 0.64-4.26666667 16-93.97333333 98.45333333-162.24 193.81333333-162.24H735.46666667c104.21333333 0 198.18666667 64.32 234.02666666 162.13333333 0.53333333 1.38666667 1.06666667 2.88 1.6 4.37333334 11.73333333 33.38666667 18.13333333 69.22666667 18.13333334 106.56 0 177.28-142.50666667 320.64-319.89333334 321.6zM185.38666667 115.09333332999995c0 1.81333333 1.49333333 3.30666667 3.30666666 3.30666667h137.6c1.81333333 0 3.30666667-1.49333333 3.30666667-3.30666667 0-1.81333333-1.49333333-3.30666667-3.30666667-3.30666666h-137.6c-1.92 0-3.30666667 1.49333333-3.30666666 3.30666666zM293.22666667 116.90666667000005c0.96 1.49333333 3.09333333 1.92 4.58666666 0.96l21.54666667-14.18666667c1.49333333-0.96 1.92-3.09333333 0.96-4.58666667s-3.09333333-1.92-4.58666667-0.96l-21.54666666 14.18666667c-1.49333333 0.96-1.92 2.98666667-0.96 4.58666667zM293.22666667 113.27999999999997c0.96-1.49333333 3.09333333-1.92 4.58666666-0.96l21.54666667 14.18666667c1.49333333 0.96 1.92 3.09333333 0.96 4.58666666s-3.09333333 1.92-4.58666667 0.96l-21.54666666-14.18666666c-1.49333333-1.06666667-1.92-3.09333333-0.96-4.58666667zM221.65333333 116.90666667000005c-0.96 1.49333333-3.09333333 1.92-4.58666666 0.96l-21.54666667-14.18666667c-1.49333333-0.96-1.92-3.09333333-0.96-4.58666667s3.09333333-1.92 4.58666667-0.96l21.54666666 14.18666667c1.49333333 0.96 1.92 2.98666667 0.96 4.58666667zM221.65333333 113.27999999999997c-0.96-1.49333333-3.09333333-1.92-4.58666666-0.96l-21.54666667 14.18666667c-1.49333333 0.96-1.92 3.09333333-0.96 4.58666666s3.09333333 1.92 4.58666667 0.96l21.54666666-14.18666666c1.49333333-1.06666667 1.92-3.09333333 0.96-4.58666667zM206.50666667 64.10666666999998c-1.28 1.28-1.28 3.41333333 0 4.69333333l97.28 97.28c1.28 1.28 3.41333333 1.28 4.69333333 0 1.28-1.28 1.28-3.41333333 0-4.69333333L211.2 64.10666666999998c-1.38666667-1.28-3.41333333-1.28-4.69333333 0zM281.49333333 141.65333333c-0.32 1.81333333 0.74666667 3.52 2.56 3.84l25.28 5.22666667c1.81333333 0.32 3.52-0.74666667 3.84-2.56 0.32-1.81333333-0.74666667-3.52-2.56-3.84l-25.28-5.22666667c-1.70666667-0.32-3.52 0.85333333-3.84 2.56zM284.05333333 139.09333332999995c1.81333333-0.32 3.52 0.74666667 3.84 2.56l5.22666667 25.28c0.32 1.81333333-0.74666667 3.52-2.56 3.84-1.81333333 0.32-3.52-0.74666667-3.84-2.56l-5.22666667-25.28c-0.42666667-1.70666667 0.74666667-3.41333333 2.56-3.84zM230.82666667 90.98666666999998c-1.81333333 0.32-3.52-0.74666667-3.84-2.56l-5.22666667-25.28c-0.32-1.81333333 0.74666667-3.52 2.56-3.84 1.81333333-0.32 3.52 0.74666667 3.84 2.56l5.22666667 25.28c0.32 1.70666667-0.74666667 3.52-2.56 3.84zM233.38666667 88.42666667000003c0.32-1.81333333-0.74666667-3.52-2.56-3.84l-25.28-5.22666667c-1.81333333-0.32-3.52 0.74666667-3.84 2.56-0.32 1.81333333 0.74666667 3.52 2.56 3.84l25.28 5.22666667c1.70666667 0.42666667 3.52-0.74666667 3.84-2.56zM257.38666667 42.98666666999998c-1.81333333 0-3.30666667 1.49333333-3.30666667 3.30666666v137.6c0 1.81333333 1.49333333 3.30666667 3.30666667 3.30666667 1.81333333 0 3.30666667-1.49333333 3.30666666-3.30666667v-137.6c0-1.81333333-1.49333333-3.30666667-3.30666666-3.30666666zM255.57333333 150.93333332999998c-1.49333333 0.96-1.92 3.09333333-0.96 4.58666667L268.8 177.06666667000002c0.96 1.49333333 3.09333333 1.92 4.58666667 0.96s1.92-3.09333333 0.96-4.58666667l-14.18666667-21.54666667c-0.96-1.6-2.98666667-2.02666667-4.58666667-0.96zM259.2 150.93333332999998c1.49333333 0.96 1.92 3.09333333 0.96 4.58666667L245.97333333 177.06666667000002c-0.96 1.49333333-3.09333333 1.92-4.58666666 0.96s-1.92-3.09333333-0.96-4.58666667l14.18666666-21.54666667c1.06666667-1.6 3.09333333-2.02666667 4.58666667-0.96zM255.57333333 79.25333333000003c-1.49333333-0.96-1.92-3.09333333-0.96-4.58666666l14.18666667-21.54666667c0.96-1.49333333 3.09333333-1.92 4.58666667-0.96s1.92 3.09333333 0.96 4.58666667l-14.18666667 21.54666666c-0.96 1.49333333-2.98666667 1.92-4.58666667 0.96zM259.2 79.25333333000003c1.49333333-0.96 1.92-3.09333333 0.96-4.58666666l-14.18666667-21.54666667c-0.96-1.49333333-3.09333333-1.92-4.58666666-0.96s-1.92 3.09333333-0.96 4.58666667l14.18666666 21.54666666c1.06666667 1.49333333 3.09333333 1.92 4.58666667 0.96zM308.37333333 64.10666666999998c-1.28-1.28-3.41333333-1.28-4.69333333 0l-97.28 97.28c-1.28 1.28-1.28 3.41333333 0 4.69333333 1.28 1.28 3.41333333 1.28 4.69333333 0l97.28-97.28c1.28-1.38666667 1.28-3.41333333 0-4.69333333zM230.82666667 139.09333332999995c-1.81333333-0.32-3.52 0.74666667-3.84 2.56l-5.22666667 25.28c-0.32 1.81333333 0.74666667 3.52 2.56 3.84 1.81333333 0.32 3.52-0.74666667 3.84-2.56l5.22666667-25.28c0.32-1.70666667-0.74666667-3.41333333-2.56-3.84zM233.38666667 141.65333333c0.32 1.81333333-0.74666667 3.52-2.56 3.84l-25.28 5.22666667c-1.81333333 0.32-3.52-0.74666667-3.84-2.56-0.32-1.81333333 0.74666667-3.52 2.56-3.84l25.28-5.22666667c1.70666667-0.32 3.52 0.85333333 3.84 2.56zM281.49333333 88.42666667000003c-0.32-1.81333333 0.74666667-3.52 2.56-3.84l25.28-5.22666667c1.81333333-0.32 3.52 0.74666667 3.84 2.56 0.32 1.81333333-0.74666667 3.52-2.56 3.84l-25.28 5.22666667c-1.70666667 0.42666667-3.52-0.74666667-3.84-2.56zM284.05333333 90.98666666999998c1.81333333 0.32 3.52-0.74666667 3.84-2.56l5.22666667-25.28c0.32-1.81333333-0.74666667-3.52-2.56-3.84-1.81333333-0.32-3.52 0.74666667-3.84 2.56l-5.22666667 25.28c-0.42666667 1.70666667 0.74666667 3.52 2.56 3.84zM440.96 115.09333332999995c0 1.81333333 1.49333333 3.30666667 3.30666667 3.30666667h137.6c1.81333333 0 3.30666667-1.49333333 3.30666666-3.30666667 0-1.81333333-1.49333333-3.30666667-3.30666666-3.30666666h-137.6c-1.81333333 0-3.30666667 1.49333333-3.30666667 3.30666666zM548.90666667 116.90666667000005c0.96 1.49333333 3.09333333 1.92 4.58666666 0.96l21.54666667-14.18666667c1.49333333-0.96 1.92-3.09333333 0.96-4.58666667s-3.09333333-1.92-4.58666667-0.96l-21.54666666 14.18666667c-1.6 0.96-2.02666667 2.98666667-0.96 4.58666667zM548.90666667 113.27999999999997c0.96-1.49333333 3.09333333-1.92 4.58666666-0.96l21.54666667 14.18666667c1.49333333 0.96 1.92 3.09333333 0.96 4.58666666s-3.09333333 1.92-4.58666667 0.96l-21.54666666-14.18666666c-1.6-1.06666667-2.02666667-3.09333333-0.96-4.58666667zM477.22666667 116.90666667000005c-0.96 1.49333333-3.09333333 1.92-4.58666667 0.96l-21.54666667-14.18666667c-1.49333333-0.96-1.92-3.09333333-0.96-4.58666667s3.09333333-1.92 4.58666667-0.96l21.54666667 14.18666667c1.6 0.96 2.02666667 2.98666667 0.96 4.58666667zM477.22666667 113.27999999999997c-0.96-1.49333333-3.09333333-1.92-4.58666667-0.96l-21.54666667 14.18666667c-1.49333333 0.96-1.92 3.09333333-0.96 4.58666666s3.09333333 1.92 4.58666667 0.96l21.54666667-14.18666666c1.6-1.06666667 2.02666667-3.09333333 0.96-4.58666667zM462.08 64.10666666999998c-1.28 1.28-1.28 3.41333333 0 4.69333333l97.28 97.28c1.28 1.28 3.41333333 1.28 4.69333333 0 1.28-1.28 1.28-3.41333333 0-4.69333333l-97.28-97.28c-1.28-1.28-3.41333333-1.28-4.69333333 0zM537.06666667 141.65333333c-0.32 1.81333333 0.74666667 3.52 2.56 3.84l25.28 5.22666667c1.81333333 0.32 3.52-0.74666667 3.84-2.56 0.32-1.81333333-0.74666667-3.52-2.56-3.84l-25.28-5.22666667c-1.70666667-0.32-3.41333333 0.85333333-3.84 2.56zM539.62666667 139.09333332999995c1.81333333-0.32 3.52 0.74666667 3.84 2.56l5.22666666 25.28c0.32 1.81333333-0.74666667 3.52-2.56 3.84-1.81333333 0.32-3.52-0.74666667-3.84-2.56l-5.22666666-25.28c-0.32-1.70666667 0.85333333-3.41333333 2.56-3.84zM486.50666667 90.98666666999998c-1.81333333 0.32-3.52-0.74666667-3.84-2.56l-5.22666667-25.28c-0.32-1.81333333 0.74666667-3.52 2.56-3.84 1.81333333-0.32 3.52 0.74666667 3.84 2.56l5.22666667 25.28c0.32 1.70666667-0.85333333 3.52-2.56 3.84zM489.06666667 88.42666667000003c0.32-1.81333333-0.74666667-3.52-2.56-3.84l-25.28-5.22666667c-1.81333333-0.32-3.52 0.74666667-3.84 2.56-0.32 1.81333333 0.74666667 3.52 2.56 3.84l25.28 5.22666667c1.70666667 0.42666667 3.41333333-0.74666667 3.84-2.56zM513.06666667 42.98666666999998c-1.81333333 0-3.30666667 1.49333333-3.30666667 3.30666666v137.6c0 1.81333333 1.49333333 3.30666667 3.30666667 3.30666667 1.81333333 0 3.30666667-1.49333333 3.30666666-3.30666667v-137.6c0-1.81333333-1.49333333-3.30666667-3.30666666-3.30666666zM511.25333333 150.93333332999998c-1.49333333 0.96-1.92 3.09333333-0.96 4.58666667l14.18666667 21.54666667c0.96 1.49333333 3.09333333 1.92 4.58666667 0.96s1.92-3.09333333 0.96-4.58666667l-14.18666667-21.54666667c-1.06666667-1.6-3.09333333-2.02666667-4.58666667-0.96zM514.88 150.93333332999998c1.49333333 0.96 1.92 3.09333333 0.96 4.58666667L501.65333333 177.06666667000002c-0.96 1.49333333-3.09333333 1.92-4.58666666 0.96s-1.92-3.09333333-0.96-4.58666667l14.18666666-21.54666667c1.06666667-1.6 3.09333333-2.02666667 4.58666667-0.96zM511.25333333 79.25333333000003c-1.49333333-0.96-1.92-3.09333333-0.96-4.58666666l14.18666667-21.54666667c0.96-1.49333333 3.09333333-1.92 4.58666667-0.96s1.92 3.09333333 0.96 4.58666667l-14.18666667 21.54666666c-1.06666667 1.49333333-3.09333333 1.92-4.58666667 0.96zM514.88 79.25333333000003c1.49333333-0.96 1.92-3.09333333 0.96-4.58666666l-14.18666667-21.54666667c-0.96-1.49333333-3.09333333-1.92-4.58666666-0.96s-1.92 3.09333333-0.96 4.58666667l14.18666666 21.54666666c1.06666667 1.49333333 3.09333333 1.92 4.58666667 0.96zM564.05333333 64.10666666999998c-1.28-1.28-3.41333333-1.28-4.69333333 0l-97.28 97.28c-1.28 1.28-1.28 3.41333333 0 4.69333333 1.28 1.28 3.41333333 1.28 4.69333333 0l97.28-97.28c1.28-1.38666667 1.28-3.41333333 0-4.69333333zM486.50666667 139.09333332999995c-1.81333333-0.32-3.52 0.74666667-3.84 2.56l-5.22666667 25.28c-0.32 1.81333333 0.74666667 3.52 2.56 3.84 1.81333333 0.32 3.52-0.74666667 3.84-2.56l5.22666667-25.28c0.32-1.70666667-0.85333333-3.41333333-2.56-3.84zM489.06666667 141.65333333c0.32 1.81333333-0.74666667 3.52-2.56 3.84l-25.28 5.22666667c-1.81333333 0.32-3.52-0.74666667-3.84-2.56-0.32-1.81333333 0.74666667-3.52 2.56-3.84l25.28-5.22666667c1.70666667-0.32 3.41333333 0.85333333 3.84 2.56zM537.06666667 88.42666667000003c-0.32-1.81333333 0.74666667-3.52 2.56-3.84l25.28-5.22666667c1.81333333-0.32 3.52 0.74666667 3.84 2.56 0.32 1.81333333-0.74666667 3.52-2.56 3.84l-25.28 5.22666667c-1.70666667 0.42666667-3.41333333-0.74666667-3.84-2.56zM539.62666667 90.98666666999998c1.81333333 0.32 3.52-0.74666667 3.84-2.56l5.22666666-25.28c0.32-1.81333333-0.74666667-3.52-2.56-3.84-1.81333333-0.32-3.52 0.74666667-3.84 2.56l-5.22666666 25.28c-0.32 1.70666667 0.85333333 3.52 2.56 3.84zM689.6 115.09333332999995c0 1.81333333 1.49333333 3.30666667 3.30666667 3.30666667h137.6c1.81333333 0 3.30666667-1.49333333 3.30666666-3.30666667 0-1.81333333-1.49333333-3.30666667-3.30666666-3.30666666h-137.6c-1.81333333 0-3.30666667 1.49333333-3.30666667 3.30666666zM797.54666667 116.90666667000005c0.96 1.49333333 3.09333333 1.92 4.58666666 0.96l21.54666667-14.18666667c1.49333333-0.96 1.92-3.09333333 0.96-4.58666667s-3.09333333-1.92-4.58666667-0.96l-21.54666666 14.18666667c-1.6 0.96-2.02666667 2.98666667-0.96 4.58666667zM797.54666667 113.27999999999997c0.96-1.49333333 3.09333333-1.92 4.58666666-0.96l21.54666667 14.18666667c1.49333333 0.96 1.92 3.09333333 0.96 4.58666666s-3.09333333 1.92-4.58666667 0.96l-21.54666666-14.18666666c-1.6-1.06666667-2.02666667-3.09333333-0.96-4.58666667zM725.86666667 116.90666667000005c-0.96 1.49333333-3.09333333 1.92-4.58666667 0.96L699.73333333 103.67999999999995c-1.49333333-0.96-1.92-3.09333333-0.96-4.58666667s3.09333333-1.92 4.58666667-0.96l21.54666667 14.18666667c1.49333333 0.96 1.92 2.98666667 0.96 4.58666667zM725.86666667 113.27999999999997c-0.96-1.49333333-3.09333333-1.92-4.58666667-0.96L699.73333333 126.50666666999996c-1.49333333 0.96-1.92 3.09333333-0.96 4.58666666s3.09333333 1.92 4.58666667 0.96l21.54666667-14.18666666c1.49333333-1.06666667 1.92-3.09333333 0.96-4.58666667zM710.72 64.10666666999998c-1.28 1.28-1.28 3.41333333 0 4.69333333l97.28 97.28c1.28 1.28 3.41333333 1.28 4.69333333 0 1.28-1.28 1.28-3.41333333 0-4.69333333l-97.28-97.28c-1.38666667-1.28-3.41333333-1.28-4.69333333 0zM785.70666667 141.65333333c-0.32 1.81333333 0.74666667 3.52 2.56 3.84l25.28 5.22666667c1.81333333 0.32 3.52-0.74666667 3.84-2.56 0.32-1.81333333-0.74666667-3.52-2.56-3.84l-25.28-5.22666667c-1.70666667-0.32-3.41333333 0.85333333-3.84 2.56zM788.26666667 139.09333332999995c1.81333333-0.32 3.52 0.74666667 3.84 2.56l5.22666666 25.28c0.32 1.81333333-0.74666667 3.52-2.56 3.84-1.81333333 0.32-3.52-0.74666667-3.84-2.56l-5.22666666-25.28c-0.32-1.70666667 0.85333333-3.41333333 2.56-3.84zM735.04 90.98666666999998c-1.81333333 0.32-3.52-0.74666667-3.84-2.56l-5.22666667-25.28c-0.32-1.81333333 0.74666667-3.52 2.56-3.84 1.81333333-0.32 3.52 0.74666667 3.84 2.56l5.22666667 25.28c0.42666667 1.70666667-0.74666667 3.52-2.56 3.84zM737.6 88.42666667000003c0.32-1.81333333-0.74666667-3.52-2.56-3.84l-25.28-5.22666667c-1.81333333-0.32-3.52 0.74666667-3.84 2.56-0.32 1.81333333 0.74666667 3.52 2.56 3.84l25.28 5.22666667c1.70666667 0.42666667 3.52-0.74666667 3.84-2.56zM761.70666667 42.98666666999998c-1.81333333 0-3.30666667 1.49333333-3.30666667 3.30666666v137.6c0 1.81333333 1.49333333 3.30666667 3.30666667 3.30666667 1.81333333 0 3.30666667-1.49333333 3.30666666-3.30666667v-137.6c0-1.81333333-1.49333333-3.30666667-3.30666666-3.30666666zM759.89333333 150.93333332999998c-1.49333333 0.96-1.92 3.09333333-0.96 4.58666667l14.18666667 21.54666667c0.96 1.49333333 3.09333333 1.92 4.58666667 0.96s1.92-3.09333333 0.96-4.58666667l-14.18666667-21.54666667c-1.06666667-1.6-3.09333333-2.02666667-4.58666667-0.96zM763.52 150.93333332999998c1.49333333 0.96 1.92 3.09333333 0.96 4.58666667L750.29333333 177.06666667000002c-0.96 1.49333333-3.09333333 1.92-4.58666666 0.96s-1.92-3.09333333-0.96-4.58666667l14.18666666-21.54666667c0.96-1.6 3.09333333-2.02666667 4.58666667-0.96zM759.89333333 79.25333333000003c-1.49333333-0.96-1.92-3.09333333-0.96-4.58666666l14.18666667-21.54666667c0.96-1.49333333 3.09333333-1.92 4.58666667-0.96s1.92 3.09333333 0.96 4.58666667l-14.18666667 21.54666666c-1.06666667 1.49333333-3.09333333 1.92-4.58666667 0.96zM763.52 79.25333333000003c1.49333333-0.96 1.92-3.09333333 0.96-4.58666666l-14.18666667-21.54666667c-0.96-1.49333333-3.09333333-1.92-4.58666666-0.96s-1.92 3.09333333-0.96 4.58666667l14.18666666 21.54666666c0.96 1.49333333 3.09333333 1.92 4.58666667 0.96zM812.69333333 64.10666666999998c-1.28-1.28-3.41333333-1.28-4.69333333 0l-97.28 97.28c-1.28 1.28-1.28 3.41333333 0 4.69333333 1.28 1.28 3.41333333 1.28 4.69333333 0l97.28-97.28c1.28-1.38666667 1.28-3.41333333 0-4.69333333zM735.04 139.09333332999995c-1.81333333-0.32-3.52 0.74666667-3.84 2.56l-5.22666667 25.28c-0.32 1.81333333 0.74666667 3.52 2.56 3.84 1.81333333 0.32 3.52-0.74666667 3.84-2.56l5.22666667-25.28c0.42666667-1.70666667-0.74666667-3.41333333-2.56-3.84zM737.6 141.65333333c0.32 1.81333333-0.74666667 3.52-2.56 3.84l-25.28 5.22666667c-1.81333333 0.32-3.52-0.74666667-3.84-2.56-0.32-1.81333333 0.74666667-3.52 2.56-3.84l25.28-5.22666667c1.70666667-0.32 3.52 0.85333333 3.84 2.56zM785.70666667 88.42666667000003c-0.32-1.81333333 0.74666667-3.52 2.56-3.84l25.28-5.22666667c1.81333333-0.32 3.52 0.74666667 3.84 2.56 0.32 1.81333333-0.74666667 3.52-2.56 3.84l-25.28 5.22666667c-1.70666667 0.42666667-3.41333333-0.74666667-3.84-2.56zM788.26666667 90.98666666999998c1.81333333 0.32 3.52-0.74666667 3.84-2.56l5.22666666-25.28c0.32-1.81333333-0.74666667-3.52-2.56-3.84-1.81333333-0.32-3.52 0.74666667-3.84 2.56l-5.22666666 25.28c-0.32 1.70666667 0.85333333 3.52 2.56 3.84z"  horiz-adv-x="1024" />

    
    <glyph glyph-name="xiaoxue-copy" unicode="&#58943;" d="M669.33333333 858.34666667c-118.61333333 0.64-222.4-62.82666667-278.72-157.86666667-30.93333333 13.86666667-65.17333333 21.65333333-101.22666666 21.97333333-141.01333333 1.38666667-255.36-111.25333333-256-252.37333333-0.10666667-13.54666667 0.96-26.88 2.88-39.89333333 0.21333333-1.38666667 0.42666667-2.88 0.64-4.26666667 16-93.97333333 98.45333333-162.24 193.81333333-162.24H735.46666667c104.21333333 0 198.18666667 64.32 234.02666666 162.13333333 0.53333333 1.38666667 1.06666667 2.88 1.6 4.37333334 11.73333333 33.38666667 18.13333333 69.22666667 18.13333334 106.56 0 177.28-142.50666667 320.64-319.89333334 321.6zM440.96 115.09333332999995c0 1.81333333 1.49333333 3.30666667 3.30666667 3.30666667h137.6c1.81333333 0 3.30666667-1.49333333 3.30666666-3.30666667 0-1.81333333-1.49333333-3.30666667-3.30666666-3.30666666h-137.6c-1.81333333 0-3.30666667 1.49333333-3.30666667 3.30666666zM548.90666667 116.90666667000005c0.96 1.49333333 3.09333333 1.92 4.58666666 0.96l21.54666667-14.18666667c1.49333333-0.96 1.92-3.09333333 0.96-4.58666667s-3.09333333-1.92-4.58666667-0.96l-21.54666666 14.18666667c-1.6 0.96-2.02666667 2.98666667-0.96 4.58666667zM548.90666667 113.27999999999997c0.96-1.49333333 3.09333333-1.92 4.58666666-0.96l21.54666667 14.18666667c1.49333333 0.96 1.92 3.09333333 0.96 4.58666666s-3.09333333 1.92-4.58666667 0.96l-21.54666666-14.18666666c-1.6-1.06666667-2.02666667-3.09333333-0.96-4.58666667zM477.22666667 116.90666667000005c-0.96 1.49333333-3.09333333 1.92-4.58666667 0.96l-21.54666667-14.18666667c-1.49333333-0.96-1.92-3.09333333-0.96-4.58666667s3.09333333-1.92 4.58666667-0.96l21.54666667 14.18666667c1.6 0.96 2.02666667 2.98666667 0.96 4.58666667zM477.22666667 113.27999999999997c-0.96-1.49333333-3.09333333-1.92-4.58666667-0.96l-21.54666667 14.18666667c-1.49333333 0.96-1.92 3.09333333-0.96 4.58666666s3.09333333 1.92 4.58666667 0.96l21.54666667-14.18666666c1.6-1.06666667 2.02666667-3.09333333 0.96-4.58666667zM462.08 64.10666666999998c-1.28 1.28-1.28 3.41333333 0 4.69333333l97.28 97.28c1.28 1.28 3.41333333 1.28 4.69333333 0 1.28-1.28 1.28-3.41333333 0-4.69333333l-97.28-97.28c-1.28-1.28-3.41333333-1.28-4.69333333 0zM537.06666667 141.65333333c-0.32 1.81333333 0.74666667 3.52 2.56 3.84l25.28 5.22666667c1.81333333 0.32 3.52-0.74666667 3.84-2.56 0.32-1.81333333-0.74666667-3.52-2.56-3.84l-25.28-5.22666667c-1.70666667-0.32-3.41333333 0.85333333-3.84 2.56zM539.62666667 139.09333332999995c1.81333333-0.32 3.52 0.74666667 3.84 2.56l5.22666666 25.28c0.32 1.81333333-0.74666667 3.52-2.56 3.84-1.81333333 0.32-3.52-0.74666667-3.84-2.56l-5.22666666-25.28c-0.32-1.70666667 0.85333333-3.41333333 2.56-3.84zM486.50666667 90.98666666999998c-1.81333333 0.32-3.52-0.74666667-3.84-2.56l-5.22666667-25.28c-0.32-1.81333333 0.74666667-3.52 2.56-3.84 1.81333333-0.32 3.52 0.74666667 3.84 2.56l5.22666667 25.28c0.32 1.70666667-0.85333333 3.52-2.56 3.84zM489.06666667 88.42666667000003c0.32-1.81333333-0.74666667-3.52-2.56-3.84l-25.28-5.22666667c-1.81333333-0.32-3.52 0.74666667-3.84 2.56-0.32 1.81333333 0.74666667 3.52 2.56 3.84l25.28 5.22666667c1.70666667 0.42666667 3.41333333-0.74666667 3.84-2.56zM513.06666667 42.98666666999998c-1.81333333 0-3.30666667 1.49333333-3.30666667 3.30666666v137.6c0 1.81333333 1.49333333 3.30666667 3.30666667 3.30666667 1.81333333 0 3.30666667-1.49333333 3.30666666-3.30666667v-137.6c0-1.81333333-1.49333333-3.30666667-3.30666666-3.30666666zM511.25333333 150.93333332999998c-1.49333333 0.96-1.92 3.09333333-0.96 4.58666667l14.18666667 21.54666667c0.96 1.49333333 3.09333333 1.92 4.58666667 0.96s1.92-3.09333333 0.96-4.58666667l-14.18666667-21.54666667c-1.06666667-1.6-3.09333333-2.02666667-4.58666667-0.96zM514.88 150.93333332999998c1.49333333 0.96 1.92 3.09333333 0.96 4.58666667L501.65333333 177.06666667000002c-0.96 1.49333333-3.09333333 1.92-4.58666666 0.96s-1.92-3.09333333-0.96-4.58666667l14.18666666-21.54666667c1.06666667-1.6 3.09333333-2.02666667 4.58666667-0.96zM511.25333333 79.25333333000003c-1.49333333-0.96-1.92-3.09333333-0.96-4.58666666l14.18666667-21.54666667c0.96-1.49333333 3.09333333-1.92 4.58666667-0.96s1.92 3.09333333 0.96 4.58666667l-14.18666667 21.54666666c-1.06666667 1.49333333-3.09333333 1.92-4.58666667 0.96zM514.88 79.25333333000003c1.49333333-0.96 1.92-3.09333333 0.96-4.58666666l-14.18666667-21.54666667c-0.96-1.49333333-3.09333333-1.92-4.58666666-0.96s-1.92 3.09333333-0.96 4.58666667l14.18666666 21.54666666c1.06666667 1.49333333 3.09333333 1.92 4.58666667 0.96zM564.05333333 64.10666666999998c-1.28-1.28-3.41333333-1.28-4.69333333 0l-97.28 97.28c-1.28 1.28-1.28 3.41333333 0 4.69333333 1.28 1.28 3.41333333 1.28 4.69333333 0l97.28-97.28c1.28-1.38666667 1.28-3.41333333 0-4.69333333zM486.50666667 139.09333332999995c-1.81333333-0.32-3.52 0.74666667-3.84 2.56l-5.22666667 25.28c-0.32 1.81333333 0.74666667 3.52 2.56 3.84 1.81333333 0.32 3.52-0.74666667 3.84-2.56l5.22666667-25.28c0.32-1.70666667-0.85333333-3.41333333-2.56-3.84zM489.06666667 141.65333333c0.32 1.81333333-0.74666667 3.52-2.56 3.84l-25.28 5.22666667c-1.81333333 0.32-3.52-0.74666667-3.84-2.56-0.32-1.81333333 0.74666667-3.52 2.56-3.84l25.28-5.22666667c1.70666667-0.32 3.41333333 0.85333333 3.84 2.56zM537.06666667 88.42666667000003c-0.32-1.81333333 0.74666667-3.52 2.56-3.84l25.28-5.22666667c1.81333333-0.32 3.52 0.74666667 3.84 2.56 0.32 1.81333333-0.74666667 3.52-2.56 3.84l-25.28 5.22666667c-1.70666667 0.42666667-3.41333333-0.74666667-3.84-2.56zM539.62666667 90.98666666999998c1.81333333 0.32 3.52-0.74666667 3.84-2.56l5.22666666-25.28c0.32-1.81333333-0.74666667-3.52-2.56-3.84-1.81333333-0.32-3.52 0.74666667-3.84 2.56l-5.22666666 25.28c-0.32 1.70666667 0.85333333 3.52 2.56 3.84z"  horiz-adv-x="1024" />

    
    <glyph glyph-name="baoyu" unicode="&#58946;" d="M670.4 861.86666667c-118.61333333 0.64-222.4-62.82666667-278.72-157.86666667-30.93333333 13.86666667-65.17333333 21.65333333-101.22666667 21.97333333-141.01333333 1.38666667-255.36-111.25333333-256.10666666-252.26666666-0.10666667-13.54666667 0.96-26.88 2.88-39.89333334 0.21333333-1.38666667 0.42666667-2.88 0.64-4.26666666 16-93.97333333 98.45333333-162.24 193.81333333-162.24H736.42666667c104.21333333 0 198.18666667 64.32 234.02666666 162.13333333 0.53333333 1.38666667 1.06666667 2.88 1.6 4.37333333 11.73333333 33.38666667 18.13333333 69.22666667 18.13333334 106.56 0.10666667 177.17333333-142.50666667 320.53333333-319.78666667 321.49333334zM164.37333333 4.90666667000005c-8.21333333 4.69333333-10.98666667 15.14666667-6.29333333 23.36l89.6 155.2c4.69333333 8.21333333 15.14666667 10.98666667 23.36 6.29333333 8.21333333-4.69333333 10.98666667-15.14666667 6.29333333-23.36l-89.6-155.2c-4.8-8.21333333-15.25333333-10.98666667-23.36-6.29333333zM751.57333333 4.90666667000005c-8.21333333 4.69333333-10.98666667 15.14666667-6.29333333 23.36l89.6 155.2c4.69333333 8.21333333 15.14666667 10.98666667 23.36 6.29333333 8.21333333-4.69333333 10.98666667-15.14666667 6.29333333-23.36l-89.6-155.2c-4.8-8.21333333-15.25333333-10.98666667-23.36-6.29333333zM292.26666667-27.73333333000005c-8.21333333 4.69333333-10.98666667 15.14666667-6.29333334 23.36l127.36 220.58666666c4.69333333 8.21333333 15.14666667 10.98666667 23.36 6.29333334 8.21333333-4.69333333 10.98666667-15.14666667 6.29333334-23.36L315.62666667-21.546666670000036c-4.69333333-8.10666667-15.14666667-10.88-23.36-6.18666666zM439.04-27.73333333000005c-8.21333333 4.69333333-10.98666667 15.14666667-6.29333333 23.36l127.36 220.58666666c4.69333333 8.21333333 15.14666667 10.98666667 23.36 6.29333334 8.21333333-4.69333333 10.98666667-15.14666667 6.29333333-23.36L462.4-21.546666670000036c-4.69333333-8.10666667-15.14666667-10.88-23.36-6.18666666zM585.92-27.73333333000005c-8.21333333 4.69333333-10.98666667 15.14666667-6.29333333 23.36l127.36 220.58666666c4.69333333 8.21333333 15.14666667 10.98666667 23.36 6.29333334 8.21333333-4.69333333 10.98666667-15.14666667 6.29333333-23.36L609.17333333-21.546666670000036c-4.69333333-8.10666667-15.14666667-10.88-23.25333333-6.18666666z"  horiz-adv-x="1024" />

    
    <glyph glyph-name="zhenyu" unicode="&#58947;" d="M259.41333333 654.93333333m-202.88 0a202.88 202.88 0 1 1 405.76 0 202.88 202.88 0 1 1-405.76 0ZM259.41333333 654.93333333m-127.89333333 0a127.89333333 127.89333333 0 1 1 255.78666667 0 127.89333333 127.89333333 0 1 1-255.78666667 0ZM669.33333333 782.82666667c-118.61333333 0.64-222.4-62.82666667-278.72-157.86666667-30.93333333 13.86666667-65.17333333 21.65333333-101.22666666 21.97333333-141.01333333 1.28-255.36-111.36-256-252.37333333-0.10666667-13.54666667 0.96-26.88 2.88-39.89333333 0.21333333-1.38666667 0.42666667-2.88 0.64-4.26666667 16-93.97333333 98.45333333-162.24 193.81333333-162.24H735.46666667c104.21333333 0 198.18666667 64.32 234.02666666 162.13333333 0.53333333 1.38666667 1.06666667 2.88 1.6 4.37333334 11.73333333 33.38666667 18.13333333 69.22666667 18.13333334 106.56 0 177.17333333-142.50666667 320.53333333-319.89333334 321.6zM417.92 2.026666670000054c-14.08-25.49333333-46.08-34.66666667-71.57333333-20.69333334s-34.66666667 46.08-20.69333334 71.57333334c14.08 25.49333333 110.29333333 90.98666667 110.29333334 90.98666666s-3.94666667-116.48-18.02666667-141.86666666zM686.72 2.026666670000054c-14.08-25.49333333-46.08-34.66666667-71.57333333-20.69333334-25.49333333 14.08-34.66666667 46.08-20.69333334 71.57333334 14.08 25.49333333 110.29333333 90.98666667 110.29333334 90.98666666s-4.05333333-116.48-18.02666667-141.86666666z"  horiz-adv-x="1024" />

    
    <glyph glyph-name="yujiaxue" unicode="&#58958;" d="M660.5 832c-111.2 0.6-208.5-58.9-261.3-148-29 13-61.1 20.3-94.9 20.6-132.2 1.3-239.4-104.3-240.1-236.5-0.1-12.7 0.9-25.2 2.7-37.4 0.2-1.3 0.4-2.7 0.6-4 15-88.1 92.3-152.1 181.7-152.1H722.4c97.7 0 185.8 60.3 219.4 152 0.5 1.3 1 2.7 1.5 4.1 11 31.3 17 64.9 17 99.9 0.1 166.1-133.6 300.5-299.8 301.4zM299.1 89.3c-13.2-23.9-43.2-32.5-67.1-19.4s-32.5 43.2-19.4 67.1c13.2 23.9 103.4 85.3 103.4 85.3s-3.8-109.2-16.9-133zM803 89.3c-13.2-23.9-43.2-32.5-67.1-19.4-23.9 13.2-32.5 43.2-19.4 67.1 13.2 23.9 103.4 85.3 103.4 85.3s-3.7-109.2-16.9-133zM444.7 143c0 1.7 1.4 3.1 3.1 3.1h129c1.7 0 3.1-1.4 3.1-3.1 0-1.7-1.4-3.1-3.1-3.1h-129c-1.7 0-3.1 1.4-3.1 3.1zM545.9 144.7c0.9 1.4 2.9 1.8 4.3 0.9l20.2-13.3c1.4-0.9 1.8-2.9 0.9-4.3s-2.9-1.8-4.3-0.9l-20.2 13.3c-1.5 0.9-1.9 2.9-0.9 4.3zM545.9 141.3c0.9-1.4 2.9-1.8 4.3-0.9l20.2 13.3c1.4 0.9 1.8 2.9 0.9 4.3s-2.9 1.8-4.3 0.9l-20.2-13.3c-1.5-1-1.9-2.9-0.9-4.3zM478.7 144.7c-0.9 1.4-2.9 1.8-4.3 0.9l-20.2-13.3c-1.4-0.9-1.8-2.9-0.9-4.3s2.9-1.8 4.3-0.9l20.2 13.3c1.4 0.9 1.8 2.9 0.9 4.3zM478.7 141.3c-0.9-1.4-2.9-1.8-4.3-0.9l-20.2 13.3c-1.4 0.9-1.8 2.9-0.9 4.3s2.9 1.8 4.3 0.9l20.2-13.3c1.4-1 1.8-2.9 0.9-4.3zM464.5 95.2c-1.2 1.2-1.2 3.2 0 4.4l91.2 91.2c1.2 1.2 3.2 1.2 4.4 0 1.2-1.2 1.2-3.2 0-4.4l-91.2-91.2c-1.2-1.2-3.2-1.2-4.4 0zM534.8 167.9c-0.3 1.7 0.7 3.3 2.4 3.6l23.7 4.9c1.7 0.3 3.3-0.7 3.6-2.4 0.3-1.7-0.7-3.3-2.4-3.6l-23.7-4.9c-1.6-0.3-3.2 0.8-3.6 2.4zM537.2 165.5c1.7-0.3 3.3 0.7 3.6 2.4l4.9 23.7c0.3 1.7-0.7 3.3-2.4 3.6-1.7 0.3-3.3-0.7-3.6-2.4l-4.9-23.7c-0.3-1.6 0.8-3.2 2.4-3.6zM487.3 120.4c-1.7 0.3-3.3-0.7-3.6-2.4l-4.9-23.7c-0.3-1.7 0.7-3.3 2.4-3.6 1.7-0.3 3.3 0.7 3.6 2.4l4.9 23.7c0.4 1.6-0.7 3.3-2.4 3.6zM489.7 118c0.3-1.7-0.7-3.3-2.4-3.6l-23.7-4.9c-1.7-0.3-3.3 0.7-3.6 2.4-0.3 1.7 0.7 3.3 2.4 3.6l23.7 4.9c1.7 0.4 3.3-0.7 3.6-2.4zM512.3 75.4c-1.7 0-3.1 1.4-3.1 3.1v129c0 1.7 1.4 3.1 3.1 3.1 1.7 0 3.1-1.4 3.1-3.1v-129c0-1.7-1.4-3.1-3.1-3.1zM510.6 176.6c-1.4 0.9-1.8 2.9-0.9 4.3l13.3 20.2c0.9 1.4 2.9 1.8 4.3 0.9s1.8-2.9 0.9-4.3l-13.3-20.2c-1-1.5-2.9-1.9-4.3-0.9zM514 176.6c1.4 0.9 1.8 2.9 0.9 4.3l-13.3 20.2c-0.9 1.4-2.9 1.8-4.3 0.9s-1.8-2.9-0.9-4.3l13.3-20.2c0.9-1.5 2.9-1.9 4.3-0.9zM510.6 109.4c-1.4-0.9-1.8-2.9-0.9-4.3l13.3-20.2c0.9-1.4 2.9-1.8 4.3-0.9s1.8 2.9 0.9 4.3l-13.3 20.2c-1 1.4-2.9 1.8-4.3 0.9zM514 109.4c1.4-0.9 1.8-2.9 0.9-4.3l-13.3-20.2c-0.9-1.4-2.9-1.8-4.3-0.9s-1.8 2.9-0.9 4.3l13.3 20.2c0.9 1.4 2.9 1.8 4.3 0.9zM560.1 95.2c-1.2-1.2-3.2-1.2-4.4 0l-91.2 91.2c-1.2 1.2-1.2 3.2 0 4.4 1.2 1.2 3.2 1.2 4.4 0l91.2-91.2c1.2-1.3 1.2-3.2 0-4.4zM487.3 165.5c-1.7-0.3-3.3 0.7-3.6 2.4l-4.9 23.7c-0.3 1.7 0.7 3.3 2.4 3.6 1.7 0.3 3.3-0.7 3.6-2.4l4.9-23.7c0.4-1.6-0.7-3.2-2.4-3.6zM489.7 167.9c0.3 1.7-0.7 3.3-2.4 3.6l-23.7 4.9c-1.7 0.3-3.3-0.7-3.6-2.4-0.3-1.7 0.7-3.3 2.4-3.6l23.7-4.9c1.7-0.3 3.3 0.8 3.6 2.4zM534.8 118c-0.3-1.7 0.7-3.3 2.4-3.6l23.7-4.9c1.7-0.3 3.3 0.7 3.6 2.4 0.3 1.7-0.7 3.3-2.4 3.6l-23.7 4.9c-1.6 0.4-3.2-0.7-3.6-2.4zM537.2 120.4c1.7 0.3 3.3-0.7 3.6-2.4l4.9-23.7c0.3-1.7-0.7-3.3-2.4-3.6-1.7-0.3-3.3 0.7-3.6 2.4l-4.9 23.7c-0.3 1.6 0.8 3.3 2.4 3.6z"  horiz-adv-x="1024" />

    
    <glyph glyph-name="shachenbao" unicode="&#58959;" d="M421.9 438.4H96.2c-17.6 0-32 14.4-32 32s14.4 32 32 32h325.7c17.6 0 32-14.4 32-32s-14.4-32-32-32zM423.7 265.6H240.6c-16.6 0-30.2 13.6-30.2 30.2v3.6c0 16.6 13.6 30.2 30.2 30.2h183.1c16.6 0 30.2-13.6 30.2-30.2v-3.6c0-16.6-13.6-30.2-30.2-30.2zM416.1 438.4c-17.7 0-32 14.3-32 32s14.3 32 32 32c32.5 0 59 26.5 59 59s-26.5 59-59 59c-17.7 0-32 14.3-32 32s14.3 32 32 32c67.8 0 123-55.2 123-123s-55.2-123-123-123zM416.1 89.3c-17.7 0-32 14.3-32 32s14.3 32 32 32c30.9 0 56.1 25.2 56.1 56.1s-25.2 56.1-56.1 56.1c-17.7 0-32 14.3-32 32s14.3 32 32 32c66.2 0 120.1-53.9 120.1-120.1 0-66.2-53.9-120.1-120.1-120.1zM637.7 105.2m-49 0a49 49 0 1 1 98 0 49 49 0 1 1-98 0ZM637.7 287.6m-49 0a49 49 0 1 1 98 0 49 49 0 1 1-98 0ZM637.7 470m-49 0a49 49 0 1 1 98 0 49 49 0 1 1-98 0ZM637.7 652.4m-49 0a49 49 0 1 1 98 0 49 49 0 1 1-98 0ZM774 200.4m-49 0a49 49 0 1 1 98 0 49 49 0 1 1-98 0ZM774 382.8m-49 0a49 49 0 1 1 98 0 49 49 0 1 1-98 0ZM774 565.2m-49 0a49 49 0 1 1 98 0 49 49 0 1 1-98 0ZM910.3 291.6m-49 0a49 49 0 1 1 98 0 49 49 0 1 1-98 0ZM910.3 474m-49 0a49 49 0 1 1 98 0 49 49 0 1 1-98 0Z"  horiz-adv-x="1024" />

    
    <glyph glyph-name="fuchen" unicode="&#58960;" d="M927.3 192H96.2c-17.6 0-32 14.4-32 32s14.4 32 32 32h831.1c17.6 0 32-14.4 32-32s-14.4-32-32-32zM927.3-33H96.2c-17.6 0-32 14.4-32 32s14.4 32 32 32h831.1c17.6 0 32-14.4 32-32s-14.4-32-32-32zM177 380m-49 0a49 49 0 1 1 98 0 49 49 0 1 1-98 0ZM401.1 380m-49 0a49 49 0 1 1 98 0 49 49 0 1 1-98 0ZM625.1 380m-49 0a49 49 0 1 1 98 0 49 49 0 1 1-98 0ZM849.1 380m-49 0a49 49 0 1 1 98 0 49 49 0 1 1-98 0ZM289 546.4m-49 0a49 49 0 1 1 98 0 49 49 0 1 1-98 0ZM513 546.4m-49 0a49 49 0 1 1 98 0 49 49 0 1 1-98 0ZM737 546.4m-49 0a49 49 0 1 1 98 0 49 49 0 1 1-98 0ZM177 712.8m-49 0a49 49 0 1 1 98 0 49 49 0 1 1-98 0ZM401.1 712.8m-49 0a49 49 0 1 1 98 0 49 49 0 1 1-98 0ZM625.1 712.8m-49 0a49 49 0 1 1 98 0 49 49 0 1 1-98 0ZM849.1 712.8m-49 0a49 49 0 1 1 98 0 49 49 0 1 1-98 0Z"  horiz-adv-x="1024" />

    
    <glyph glyph-name="wumai" unicode="&#58961;" d="M176.4 290.1m-49 0a49 49 0 1 1 98 0 49 49 0 1 1-98 0ZM420.6 290.1m-49 0a49 49 0 1 1 98 0 49 49 0 1 1-98 0ZM664.8 290.1m-49 0a49 49 0 1 1 98 0 49 49 0 1 1-98 0ZM909 290.1m-49 0a49 49 0 1 1 98 0 49 49 0 1 1-98 0ZM575.9 464.8H130c-17.6 0-32 14.4-32 32s14.4 32 32 32h445.9c17.6 0 32-14.4 32-32s-14.4-32-32-32zM926 464.8H704c-17.6 0-32 14.4-32 32s14.4 32 32 32h222c17.6 0 32-14.4 32-32s-14.4-32-32-32zM927.3 49.3H478.7c-17.6 0-32 14.4-32 32s14.4 32 32 32h448.6c17.6 0 32-14.4 32-32s-14.4-32-32-32zM352 49.3H130c-17.6 0-32 14.4-32 32s14.4 32 32 32h222c17.6 0 32-14.4 32-32s-14.4-32-32-32zM176.4 689m-49 0a49 49 0 1 1 98 0 49 49 0 1 1-98 0ZM420.6 689m-49 0a49 49 0 1 1 98 0 49 49 0 1 1-98 0ZM664.8 689m-49 0a49 49 0 1 1 98 0 49 49 0 1 1-98 0ZM909 689m-49 0a49 49 0 1 1 98 0 49 49 0 1 1-98 0Z"  horiz-adv-x="1024" />

    
    <glyph glyph-name="wu" unicode="&#58962;" d="M897 241.6H129c-17 0-31 13.9-31 31v2c0 17 13.9 31 31 31h768c17 0 31-13.9 31-31v-2c0-17-14-31-31-31zM896 23.3H478.7c-17.6 0-32 14.4-32 32s14.4 32 32 32H896c17.6 0 32-14.4 32-32s-14.4-32-32-32zM544 459.9H130c-17.6 0-32 14.4-32 32s14.4 32 32 32h414c17.6 0 32-14.4 32-32s-14.4-32-32-32zM894.1 459.9h-222c-17.6 0-32 14.4-32 32s14.4 32 32 32h222c17.6 0 32-14.4 32-32s-14.4-32-32-32zM895.3 678.3h-768c-17 0-31 13.9-31 31v2c0 17 13.9 31 31 31h768c17 0 31-13.9 31-31v-2c0-17.1-13.9-31-31-31zM352 23.3H130c-17.6 0-32 14.4-32 32s14.4 32 32 32h222c17.6 0 32-14.4 32-32s-14.4-32-32-32z"  horiz-adv-x="1024" />

    
    <glyph glyph-name="taifeng" unicode="&#58963;" d="M414.4 684.8c32 10.5 64.6 16.8 97.2 19 67.6 7.5 135.1-6.2 191.7-41.5 26.1-14.5 50-32.6 71.1-53.7 138-138 125.8-373.8-27.2-526.7-107.5-107.6-256-145.6-382.7-110.7 84.8 2.7 171.8 38.6 239.9 106.7 1.7 1.7 3.5 3.5 5.2 5.3-32-10.5-64.6-16.8-97.2-19-67.6-7.4-135.1 6.2-191.7 41.5-26.1 14.5-50 32.6-71.1 53.7-138 138-125.8 373.8 27.2 526.7 107.5 107.6 256 145.6 382.7 110.7-84.8-2.7-171.8-38.6-239.9-106.7-1.7-1.8-3.5-3.5-5.2-5.3z m-0.8-209c-54.5-54.5-54.5-142.9 0-197.5 54.5-54.5 142.9-54.5 197.5 0 54.5 54.5 54.5 142.9 0 197.5-54.5 54.5-142.9 54.5-197.5 0z m0 0"  horiz-adv-x="1024" />

    
    <glyph glyph-name="longjuanfeng" unicode="&#58964;" d="M894.3 717.5h-766c-17.6 0-32 14.4-32 32s14.4 32 32 32h766c17.6 0 32-14.4 32-32s-14.4-32-32-32zM835.5 595.7h-611c-17.6 0-32 14.4-32 32s14.4 32 32 32h611c17.6 0 32-14.4 32-32s-14.4-32-32-32zM792 474H319c-17.6 0-32 14.4-32 32s14.4 32 32 32h473c17.6 0 32-14.4 32-32s-14.4-32-32-32zM726.8 352.2H374.5c-17.2 0-31.2 14.1-31.2 31.2V385c0 17.2 14.1 31.2 31.2 31.2h352.2c17.2 0 31.2-14.1 31.2-31.2v-1.5c0.1-17.2-14-31.3-31.1-31.3zM619.7 230.4H373.8c-16.1 0-29.3 13.2-29.3 29.3v5.4c0 16.1 13.2 29.3 29.3 29.3h245.9c16.1 0 29.3-13.2 29.3-29.3v-5.4c0-16.1-13.2-29.3-29.3-29.3zM521.2 108.7h-163c-16.2 0-29.4 13.2-29.4 29.4v5.2c0 16.2 13.2 29.4 29.4 29.4h163c16.2 0 29.4-13.2 29.4-29.4v-5.2c0-16.2-13.2-29.4-29.4-29.4zM399.6-13.1H330c-17.6 0-32 14.4-32 32s14.4 32 32 32h69.6c17.6 0 32-14.4 32-32s-14.4-32-32-32z"  horiz-adv-x="1024" />

    
    <glyph glyph-name="feng" unicode="&#58965;" d="M800.8 438.4H130c-17.6 0-32 14.4-32 32s14.4 32 32 32h670.8c17.6 0 32-14.4 32-32s-14.4-32-32-32zM804 265.6H472.4c-15.3 0-27.8 12.5-27.8 27.8v8.3c0 15.3 12.5 27.8 27.8 27.8H804c15.3 0 27.8-12.5 27.8-27.8v-8.3c0-15.3-12.5-27.8-27.8-27.8zM794.9 438.4c-17.7 0-32 14.3-32 32s14.3 32 32 32c32.5 0 59 26.5 59 59s-26.5 59-59 59c-17.7 0-32 14.3-32 32s14.3 32 32 32c67.8 0 123-55.2 123-123s-55.1-123-123-123zM794 89.3c-17.7 0-32 14.3-32 32s14.3 32 32 32c30.9 0 56.1 25.2 56.1 56.1s-25.2 56.1-56.1 56.1c-17.7 0-32 14.3-32 32s14.3 32 32 32c66.2 0 120.1-53.9 120.1-120.1 0-66.2-53.9-120.1-120.1-120.1zM351.1 265.6H221.5c-17.6 0-32 14.4-32 32s14.4 32 32 32h129.6c17.6 0 32-14.4 32-32s-14.4-32-32-32z"  horiz-adv-x="1024" />

    
    <glyph glyph-name="dafeng" unicode="&#58966;" d="M804.2 454.4H133.4c-17.6 0-32 14.4-32 32s14.4 32 32 32h670.8c17.6 0 32-14.4 32-32s-14.4-32-32-32zM807.3 281.6H475.8c-15.3 0-27.8 12.5-27.8 27.8v8.3c0 15.3 12.5 27.8 27.8 27.8h331.6c15.3 0 27.8-12.5 27.8-27.8v-8.3c0-15.3-12.5-27.8-27.9-27.8zM798.3 454.4c-17.7 0-32 14.3-32 32s14.3 32 32 32c32.5 0 59 26.5 59 59s-26.5 59-59 59c-17.7 0-32 14.3-32 32s14.3 32 32 32c67.8 0 123-55.2 123-123s-55.2-123-123-123zM797.3 105.3c-17.7 0-32 14.3-32 32s14.3 32 32 32c30.9 0 56.1 25.2 56.1 56.1s-25.2 56.1-56.1 56.1c-17.7 0-32 14.3-32 32s14.3 32 32 32c66.2 0 120.1-53.9 120.1-120.1 0.1-66.2-53.8-120.1-120.1-120.1zM354.5 281.6H160c-17.6 0-32 14.4-32 32s14.4 32 32 32h194.5c17.6 0 32-14.4 32-32s-14.4-32-32-32zM544 578.5H288c-17.6 0-32 14.4-32 32s14.4 32 32 32h256c17.6 0 32-14.4 32-32s-14.4-32-32-32zM544 128.9H352c-17.6 0-32 14.4-32 32s14.4 32 32 32h192c17.6 0 32-14.4 32-32s-14.4-32-32-32z"  horiz-adv-x="1024" />

    
    <glyph glyph-name="bingbao" unicode="&#58934;" d="M651.7 199.7c182.4 0 324 174.9 266.3 366.2-26 86.1-94.1 153.9-180.2 179.7-146 43.7-282.3-28.7-338.4-146.6-32.5 16.5-69.9 24.9-109.4 22.3-104.6-6.8-189.5-91.5-196.5-196.2-8.2-123 89.2-225.4 210.5-225.4h347.7zM512 54.1m-44.6 0a44.6 44.6 0 1 1 89.2 0 44.6 44.6 0 1 1-89.2 0ZM345.6 54.4m-44.6 0a44.6 44.6 0 1 1 89.2 0 44.6 44.6 0 1 1-89.2 0ZM678.4 54.4m-44.6 0a44.6 44.6 0 1 1 89.2 0 44.6 44.6 0 1 1-89.2 0Z"  horiz-adv-x="1024" />

    
    <glyph glyph-name="xiaoxue" unicode="&#58935;" d="M651.7 202.2c182.4 0 324 174.9 266.3 366.2-26 86.1-94.1 153.9-180.2 179.7-146 43.7-282.3-28.7-338.4-146.6-32.5 16.5-69.9 24.9-109.4 22.3-104.7-6.8-189.6-91.6-196.6-196.2-8.2-123 89.2-225.4 210.5-225.4h347.8zM550.8 73.2h-8.3l4.4 7c5 7.9 2.7 18.3-5.2 23.3s-18.3 2.7-23.3-5.2L512 88l-6.6 10.4c-5 7.8-15.4 10.2-23.3 5.2s-10.2-15.4-5.2-23.3l4.2-6.6h-7.8c-9.3 0.3-16.9-7.4-16.9-16.7-0.1-9.3 7.4-16.9 16.8-16.9h8.3l-4.4-7c-5-7.9-2.7-18.3 5.2-23.3 2.8-1.8 5.9-2.6 9-2.6 5.6 0 11 2.8 14.2 7.8l6.6 10.4 6.6-10.4c3.2-5 8.7-7.8 14.2-7.8 3.1 0 6.2 0.9 9 2.6 7.9 5 10.2 15.4 5.2 23.3l-4.2 6.6H550.8c9.3 0 16.8 7.5 16.9 16.7 0 9.2-7.5 16.8-16.9 16.8z"  horiz-adv-x="1024" />

    
    <glyph glyph-name="zhongxue" unicode="&#58936;" d="M651.7 202.2c182.4 0 324 174.9 266.3 366.2-26 86.1-94.1 153.9-180.2 179.7-146 43.7-282.3-28.7-338.4-146.6-32.5 16.5-69.9 24.9-109.4 22.3-104.7-6.8-189.6-91.6-196.6-196.2-8.2-123 89.2-225.4 210.5-225.4h347.8zM467.6 73.2h-8.3l4.4 7c5 7.9 2.7 18.3-5.2 23.3s-18.3 2.7-23.3-5.2l-6.6-10.4-6.6 10.4c-5 7.8-15.4 10.2-23.3 5.2s-10.2-15.4-5.2-23.3l4.2-6.6h-7.8-0.1c-9.3 0-16.8-7.5-16.9-16.7-0.1-9.3 7.4-16.9 16.8-16.9h8.3l-4.4-7c-5-7.9-2.7-18.3 5.2-23.3 2.8-1.8 5.9-2.6 9-2.6 5.6 0 11 2.8 14.2 7.8l6.6 10.4 6.6-10.4c3.2-5 8.7-7.8 14.2-7.8 3.1 0 6.2 0.9 9 2.6 7.9 5 10.2 15.4 5.2 23.3l-4.2 6.6H467.3c9.3 0 16.8 7.5 16.9 16.7 0.2 9.3-7.3 16.9-16.6 16.9zM634.1 73.2h-8.3l4.4 7c5 7.9 2.7 18.3-5.2 23.3s-18.3 2.7-23.3-5.2l-6.6-10.4-6.6 10.4c-5 7.8-15.4 10.2-23.3 5.2-7.9-5-10.2-15.4-5.2-23.3l4.2-6.6h-7.8-0.1c-9.3 0-16.8-7.5-16.9-16.7-0.1-9.3 7.4-16.9 16.8-16.9h8.3l-4.4-7c-5-7.9-2.7-18.3 5.2-23.3 2.8-1.8 5.9-2.6 9-2.6 5.6 0 11 2.8 14.2 7.8l6.6 10.4 6.6-10.4c3.2-5 8.7-7.8 14.2-7.8 3.1 0 6.2 0.9 9 2.6 7.9 5 10.2 15.4 5.2 23.3l-4.2 6.6H633.8c9.3 0 16.8 7.5 16.9 16.7 0.2 9.3-7.3 16.9-16.6 16.9z"  horiz-adv-x="1024" />

    
    <glyph glyph-name="daxue" unicode="&#58938;" d="M651.7 202.2c182.4 0 324 174.9 266.3 366.2-26 86.1-94.1 153.9-180.2 179.7-146 43.7-282.3-28.7-338.4-146.6-32.5 16.5-69.9 24.9-109.4 22.3-104.7-6.8-189.6-91.6-196.6-196.2-8.2-123 89.2-225.4 210.5-225.4h347.8zM384.4 73.2h-8.3l4.4 7c5 7.9 2.7 18.3-5.2 23.3s-18.3 2.7-23.3-5.2l-6.6-10.4-6.6 10.4c-5 7.8-15.4 10.2-23.3 5.2-7.9-5-10.2-15.4-5.2-23.3l4.2-6.6h-7.8-0.1c-9.3 0-16.8-7.5-16.9-16.7-0.1-9.3 7.4-16.9 16.8-16.9h8.3l-4.4-7c-5-7.9-2.7-18.3 5.2-23.3 2.8-1.8 5.9-2.6 9-2.6 5.6 0 11 2.8 14.2 7.8l6.6 10.4 6.6-10.4c3.2-5 8.7-7.8 14.2-7.8 3.1 0 6.2 0.9 9 2.6 7.9 5 10.2 15.4 5.2 23.3l-4.2 6.6H384.1c9.3 0 16.8 7.5 16.9 16.7 0.2 9.3-7.3 16.9-16.6 16.9zM550.8 73.2h-8.3l4.4 7c5 7.9 2.7 18.3-5.2 23.3-7.8 5-18.3 2.7-23.3-5.2L512 88l-6.6 10.4c-5 7.8-15.4 10.2-23.3 5.2-7.9-5-10.2-15.4-5.2-23.3l4.2-6.6h-7.8-0.1c-9.3 0-16.8-7.5-16.9-16.7-0.1-9.3 7.4-16.9 16.8-16.9h8.3l-4.4-7c-5-7.9-2.7-18.3 5.2-23.3 2.8-1.8 5.9-2.6 9-2.6 5.6 0 11 2.8 14.2 7.8l6.6 10.4 6.6-10.4c3.2-5 8.7-7.8 14.2-7.8 3.1 0 6.2 0.9 9 2.6 7.9 5 10.2 15.4 5.2 23.3l-4.2 6.6H550.7c9.3 0 16.8 7.5 16.9 16.7 0.1 9.2-7.4 16.8-16.8 16.8zM717.3 73.2H709l4.4 7c5 7.9 2.7 18.3-5.2 23.3s-18.3 2.7-23.3-5.2l-6.6-10.4-6.6 10.4c-5 7.8-15.4 10.2-23.3 5.2-7.9-5-10.2-15.4-5.2-23.3l4.2-6.6h-7.8-0.1c-9.3 0-16.8-7.5-16.9-16.7-0.1-9.3 7.4-16.9 16.8-16.9h8.3l-4.4-7c-5-7.9-2.7-18.3 5.2-23.3 2.8-1.8 5.9-2.6 9-2.6 5.6 0 11 2.8 14.2 7.8l6.6 10.4 6.6-10.4c3.2-5 8.7-7.8 14.2-7.8 3.1 0 6.2 0.9 9 2.6 7.9 5 10.2 15.4 5.2 23.3l-4.2 6.6H717c9.3 0 16.8 7.5 16.9 16.7 0.2 9.3-7.3 16.9-16.6 16.9z"  horiz-adv-x="1024" />

    
    <glyph glyph-name="baoxue" unicode="&#58940;" d="M651.7 202.2c182.4 0 324 174.9 266.3 366.2-26 86.1-94.1 153.9-180.2 179.7-146 43.7-282.3-28.7-338.4-146.6-32.5 16.5-69.9 24.9-109.4 22.3-104.7-6.8-189.6-91.6-196.6-196.2-8.2-123 89.2-225.4 210.5-225.4h347.8zM301.2 73.2h-8.3l4.4 7c5 7.9 2.7 18.3-5.2 23.3-7.8 5-18.3 2.7-23.3-5.2l-6.6-10.4-6.6 10.4c-5 7.8-15.4 10.2-23.3 5.2-7.9-5-10.2-15.4-5.2-23.3l4.2-6.6h-7.8-0.1c-9.3 0-16.8-7.5-16.9-16.7-0.1-9.3 7.4-16.9 16.8-16.9h8.3l-4.4-7c-5-7.9-2.7-18.3 5.2-23.3 2.8-1.8 5.9-2.6 9-2.6 5.6 0 11 2.8 14.2 7.8l6.6 10.4 6.6-10.4c3.2-5 8.7-7.8 14.2-7.8 3.1 0 6.2 0.9 9 2.6 7.9 5 10.2 15.4 5.2 23.3l-4.2 6.6H300.9c9.3 0 16.8 7.5 16.9 16.7 0.2 9.3-7.3 16.9-16.6 16.9zM467.6 73.2h-8.3l4.4 7c5 7.9 2.7 18.3-5.2 23.3s-18.3 2.7-23.3-5.2l-6.6-10.4-6.6 10.4c-5 7.8-15.4 10.2-23.3 5.2s-10.2-15.4-5.2-23.3l4.2-6.6h-7.8c-9.4 0.3-16.9-7.4-16.9-16.7-0.1-9.3 7.4-16.9 16.8-16.9h8.3l-4.4-7c-5-7.9-2.7-18.3 5.2-23.3 2.8-1.8 5.9-2.6 9-2.6 5.6 0 11 2.8 14.2 7.8l6.6 10.4 6.6-10.4c3.2-5 8.7-7.8 14.2-7.8 3.1 0 6.2 0.9 9 2.6 7.9 5 10.2 15.4 5.2 23.3l-4.2 6.6H467.4c9.3 0 16.8 7.5 16.9 16.7 0.1 9.3-7.4 16.9-16.7 16.9zM634.1 73.2h-8.3l4.4 7c5 7.9 2.7 18.3-5.2 23.3s-18.3 2.7-23.3-5.2l-6.6-10.4-6.6 10.4c-5 7.8-15.4 10.2-23.3 5.2-7.9-5-10.2-15.4-5.2-23.3l4.2-6.6h-7.8-0.1c-9.3 0-16.8-7.5-16.9-16.7-0.1-9.3 7.4-16.9 16.8-16.9h8.3l-4.4-7c-5-7.9-2.7-18.3 5.2-23.3 2.8-1.8 5.9-2.6 9-2.6 5.6 0 11 2.8 14.2 7.8l6.6 10.4 6.6-10.4c3.2-5 8.7-7.8 14.2-7.8 3.1 0 6.2 0.9 9 2.6 7.9 5 10.2 15.4 5.2 23.3l-4.2 6.6H633.8c9.3 0 16.8 7.5 16.9 16.7 0.2 9.3-7.3 16.9-16.6 16.9zM800.5 73.2h-8.3l4.4 7c5 7.9 2.7 18.3-5.2 23.3s-18.3 2.7-23.3-5.2l-6.6-10.4-6.6 10.4c-5 7.8-15.4 10.2-23.3 5.2s-10.2-15.4-5.2-23.3l4.2-6.6h-7.8c-9.2 0.3-16.9-7.4-16.9-16.7-0.1-9.3 7.4-16.9 16.8-16.9h8.3l-4.4-7c-5-7.9-2.7-18.3 5.2-23.3 2.8-1.8 5.9-2.6 9-2.6 5.6 0 11 2.8 14.2 7.8l6.6 10.4 6.6-10.4c3.2-5 8.7-7.8 14.2-7.8 3.1 0 6.2 0.9 9 2.6 7.9 5 10.2 15.4 5.2 23.3l-4.2 6.6H800.3c9.3 0 16.8 7.5 16.9 16.7 0.1 9.3-7.4 16.9-16.7 16.9z"  horiz-adv-x="1024" />

    


  </font>
</defs>
</svg>
