<?xml version="1.0" standalone="no"?>
<!DOCTYPE svg PUBLIC "-//W3C//DTD SVG 1.1//EN" "http://www.w3.org/Graphics/SVG/1.1/DTD/svg11.dtd" >
<!--
2013-9-30: Created.
-->
<svg>
<metadata>
Created by iconfont
</metadata>
<defs>

<font id="pmfont" horiz-adv-x="1024" >
  <font-face
    font-family="pmfont"
    font-weight="500"
    font-stretch="normal"
    units-per-em="1024"
    ascent="896"
    descent="-128"
  />
    <missing-glyph />
    
    <glyph glyph-name="budget" unicode="&#58999;" d="M942.48 448.456H627.059c-9.69 0-17.536-8.91-17.536-19.896v-397.822c0-10.984 7.847-19.895 17.536-19.895H942.48c9.689 0 17.535 8.91 17.535 19.895V428.56c0 10.985-7.846 19.896-17.535 19.896zM713.707 63.274c0-7.888-5.926-14.276-13.248-14.276h-39.766c-7.322 0-13.258 6.388-13.258 14.276v28.553c0 7.888 5.936 14.286 13.258 14.286h39.766c7.322 0 13.248-6.398 13.248-14.286v-28.553z m0 85.62c0-7.849-5.926-14.208-13.248-14.208h-39.766c-7.322 0-13.258 6.36-13.258 14.208v28.407c0 7.86 5.936 14.218 13.258 14.218h39.766c7.322 0 13.248-6.359 13.248-14.218v-28.407z m0 85.483c0-7.897-5.926-14.286-13.248-14.286h-39.766c-7.322 0-13.258 6.389-13.258 14.286v28.544c0 7.888 5.936 14.286 13.258 14.286h39.766c7.322 0 13.248-6.398 13.248-14.286v-28.544zM817.92 63.274c0-7.888-5.935-14.276-13.258-14.276h-39.765c-7.322 0-13.258 6.388-13.258 14.276v28.553c0 7.888 5.936 14.286 13.258 14.286h39.765c7.332 0 13.258-6.398 13.258-14.286v-28.553z m0 85.62c0-7.849-5.935-14.208-13.258-14.208h-39.765c-7.322 0-13.258 6.36-13.258 14.208v28.407c0 7.86 5.936 14.218 13.258 14.218h39.765c7.332 0 13.258-6.359 13.258-14.218v-28.407z m0 85.483c0-7.897-5.935-14.286-13.258-14.286h-39.765c-7.322 0-13.258 6.389-13.258 14.286v28.544c0 7.888 5.936 14.286 13.258 14.286h39.765c7.332 0 13.258-6.398 13.258-14.286v-28.544z m104.204-171.103c0-7.888-5.936-14.276-13.258-14.276H869.09c-7.322 0-13.258 6.388-13.258 14.276v28.553c0 7.888 5.936 14.286 13.258 14.286h39.775c7.322 0 13.258-6.398 13.258-14.286v-28.553z m0 85.62c0-7.849-5.936-14.208-13.258-14.208H869.09c-7.322 0-13.258 6.36-13.258 14.208v28.407c0 7.86 5.936 14.218 13.258 14.218h39.775c7.322 0 13.258-6.359 13.258-14.218v-28.407z m0 85.483c0-7.897-5.936-14.286-13.258-14.286H869.09c-7.322 0-13.258 6.389-13.258 14.286v28.544c0 7.888 5.936 14.286 13.258 14.286h39.775c7.322 0 13.258-6.398 13.258-14.286v-28.544z m0.029 90.412c0-10.508-8.477-19.038-18.941-19.038H666.386c-10.455 0-18.942 8.53-18.942 19.038v76.085c0 10.509 8.487 19.039 18.942 19.039H903.21c10.464 0 18.941-8.521 18.941-19.039v-76.085zM341.176 766.326c-19.815-0.476-59.899-3.194-71.004-7.303-11.115-4.11-29.815-17.608-12.279-45.187 17.535-27.588 73.061-107.394 73.061-107.394H534.93s70.733 101.521 75.398 112.088c4.675 10.557 12.269 34.63-15.189 39.908-27.476 5.278-45.593 11.647-60.8 8.764-15.19-2.891-37.904-20.83-96.436-23.332-57.26-2.455-66.33 23.157-96.726 22.456z m240.995-255.973c-27.874 24.735-46.418 37.328-46.418 37.328H326.211S162.263 438.523 73.723 214.92999999999995c-20.63-52.11-6.197-121.545 22.793-157.568C148.24-6.908999999999992 214.414 0.14999999999997726 221 0.14999999999997726h361.162V510.353h0.01z m-131.68-388.356V77.60000000000002h-37.01v44.202c-48.407 4.976-78.366 33.276-89.937 84.743l57.242 15.016c5.277-32.389 22.832-48.594 52.674-48.594 13.928 0 24.228 3.428 30.775 10.39 6.546 6.964 9.863 15.27 9.863 25.097 0 10.158-3.317 17.89-9.863 23.05-6.547 5.25-21.173 11.892-43.82 19.935-20.348 7.09-36.254 14.053-47.698 21.074-11.454 6.895-20.746 16.546-27.874 29-7.178 12.515-10.747 27.063-10.747 43.619 0 21.717 6.43 41.32 19.146 58.693 12.782 17.374 32.82 27.979 60.23 31.864v34.29h37.03v-34.29c41.335-4.986 68.172-28.475 80.392-70.505l-51.084-21.017c-9.921 28.807-25.255 43.239-46.107 43.239-10.426 0-18.836-3.194-25.12-9.64-6.362-6.457-9.544-14.248-9.544-23.441 0-9.33 3.055-16.478 9.165-21.512 6.1-4.996 19.147-11.19 39.174-18.522 21.939-8.055 39.24-15.718 51.713-22.866 12.531-7.158 22.454-17.13 29.97-29.712 7.429-12.631 11.182-27.394 11.182-44.319 0-25.924-7.69-47.503-23.092-64.819-15.392-17.295-37.583-27.51-66.66-30.578z"  horiz-adv-x="1024" />

    
    <glyph glyph-name="baobiaofenxi" unicode="&#58903;" d="M719.665667-12.545478l4.620227 0c-48.200792 6.016017-73.910337 25.273616-87.565335 44.730761L387.278417 32.185282c-13.658068-19.457144-39.364543-38.714743-87.568405-44.730761l3.01773 0c-15.066137 0-27.114544-12.233626-27.114544-27.076682 0-15.043624 12.248975-27.079752 27.114544-27.079752l416.938947 0c15.066137 0 27.114544 12.233626 27.114544 27.079752C746.981802-24.581606 734.732827-12.545478 719.665667-12.545478zM928.942017 834.702935 95.054913 834.702935c-39.160905 0-70.895677-31.69077-70.895677-70.803579l0-627.013477c1.204431-33.29429 28.721135-59.968813 62.461587-59.968813l850.555739 0c33.740452 0 61.058634 26.675546 62.464657 59.968813l0.200568 116.939339L999.841787 763.899356C999.840764 803.012166 968.108039 834.702935 928.942017 834.702935zM568.638975 144.91167c0-8.626471-7.033184-15.649422-15.668865-15.649422l-82.144882 0c-8.635681 0-15.665795 7.02295-15.665795 15.649422l0 10.828626c0 8.626471 7.030114 15.643282 15.665795 15.643282l82.144882 0c8.635681 0 15.668865-7.016811 15.668865-15.643282L568.638975 144.91167zM941.194062 241.391025c0-6.819313-5.420453-12.440333-12.253068-12.440333L95.054913 228.950691c-6.825452 0-12.453636 5.621021-12.453636 12.440333L82.601276 763.899356c0 6.816243 5.627161 12.437264 12.453636 12.437264l833.685513 0c6.832615 0 12.453636-5.621021 12.453636-12.437264L941.194062 241.391025zM715.450668 523.601478l31.330566 0 1.006933 1.006933c0 9.627265-0.806365 19.457144-2.211365 29.081339L715.450668 523.601478zM643.547035 701.317019l-99.416244-99.286284 0-31.289634 118.500904 118.342292C656.404877 693.697481 649.980561 697.709865 643.547035 701.317019zM599.364767 719.572802l-55.233975-55.160297 0-31.292704 78.33102 78.228689C615.029538 714.758146 607.200222 717.364507 599.364767 719.572802zM544.534997 727.19541l-0.405229-0.401136 0-31.292704 29.5275 29.482475C564.018747 726.389044 554.376133 727.19541 544.534997 727.19541zM621.859084 523.601478l99.818403 99.69356c-3.613294 6.415107-7.628748 12.83533-12.253068 19.056008L590.527494 523.601478 621.859084 523.601478zM695.568852 659.798417c-2.411933 2.606361-4.821819 5.213745-7.43125 7.823176-2.613524 2.606361-5.423523 5.213745-8.234545 7.823176l-135.772266-135.791709 0-15.84692 15.266705 0L695.568852 659.798417zM684.316577 523.601478l55.835679 55.763025c-2.208295 7.823176-5.019317 15.445784-8.033977 23.068392l-78.926584-78.830393L684.316577 523.602502zM508.587274 692.091914c-112.873744 0-204.457602-91.466178-204.457602-204.189496 0-112.727411 91.583858-204.189496 204.457602-204.189496 112.870674 0 204.454532 91.463108 204.454532 204.189496L508.587274 487.902418 508.587274 692.091914z"  horiz-adv-x="1024" />

    
    <glyph glyph-name="wujiaoxing" unicode="&#58900;" d="M413.538462 259.072h-18.274462a3.938462 3.938462 0 0 0-3.938462 3.938462V281.6a3.938462 3.938462 0 0 0 3.938462 3.938462h18.274462a3.938462 3.938462 0 0 0 3.938461-3.938462v-18.432a3.938462 3.938462 0 0 0-3.938461-4.096z m0 16.659692l-4.726154 0.748308a1.142154 1.142154 0 0 0-0.866462 0.669538l-2.284308 4.765539a1.102769 1.102769 0 0 1-2.008615 0l-2.126769-4.765539a1.142154 1.142154 0 0 0-0.866462-0.669538l-4.765538-0.748308a1.260308 1.260308 0 0 1-0.630154-2.126769l3.584-3.820308a1.299692 1.299692 0 0 0 0.315077-1.102769l-0.827077-5.238154a1.142154 1.142154 0 0 1 1.614769-1.299692l4.253539 2.481231a1.063385 1.063385 0 0 0 1.063384 0l4.332308-2.323693a1.142154 1.142154 0 0 1 1.654154 1.299693l-0.827077 5.238154a1.339077 1.339077 0 0 0 0.315077 1.102769l3.465846 3.702154a1.299692 1.299692 0 0 1-0.669538 2.087384zM866.461538-128H157.538462a157.538462 157.538462 0 0 0-157.538462 157.538462V738.461538a157.538462 157.538462 0 0 0 157.538462 157.538462h708.923076a157.538462 157.538462 0 0 0 157.538462-157.538462v-708.923076a157.538462 157.538462 0 0 0-157.538462-157.538462z m-5.238153 641.063385l-183.335385 29.262769a44.110769 44.110769 0 0 0-32.728615 26.190769L563.2 751.222154a41.826462 41.826462 0 0 1-77.902769 0l-81.880616-182.705231a44.071385 44.071385 0 0 0-32.728615-26.190769l-183.296-29.302154a49.152 49.152 0 0 1-24.024615-81.526154l132.568615-142.257231a50.688 50.688 0 0 0 12.524308-42.259692l-31.507693-200.861538a44.465231 44.465231 0 0 1 63.015385-50.412308l164.155077 94.838154a39.896615 39.896615 0 0 0 40.408615 0l163.91877-94.798769a44.504615 44.504615 0 0 1 63.015384 50.412307l-31.271384 200.861539a50.766769 50.766769 0 0 0 12.445538 42.259692l132.686769 142.257231a49.230769 49.230769 0 0 1-24.103384 81.526154z"  horiz-adv-x="1024" />

    
    <glyph glyph-name="shezhi" unicode="&#58993;" d="M650.789715 872.978642c1.534655 0 0 1.150991 0 0zM1023.519018 401.647764V485.478286a12.660903 12.660903 0 0 1-12.852735 12.660903h-105.507522c-62.345354 0-76.732744 38.366372-33.378744 82.871363s74.622593 76.732744 74.622593 76.732744a14.003726 14.003726 0 0 1 0 19.183186s-28.774779 30.693098-70.785956 72.704275-72.128779 71.16962-72.128779 71.169619a14.003726 14.003726 0 0 1-19.183186 0s-33.570575-30.884929-77.691903-74.814425-81.720372-29.158443-81.720372 32.99508V883.337563a12.469071 12.469071 0 0 1-12.660903 12.660902H409.273404a12.660903 12.660903 0 0 1-12.660903-12.660902v-103.972868c0-62.153522-35.297062-76.732744-79.418389-33.186912S241.996023 819.265722 241.996023 819.265722a13.811894 13.811894 0 0 1-19.183186 0s-29.350274-27.240124-71.361452-69.251302-70.977788-72.128779-70.977788-72.128779a13.811894 13.811894 0 0 1 0-19.183186s31.076761-33.954239 75.198089-77.883735 28.582947-83.063195-33.762407-83.063195H14.483437c-14.579221 0-14.387389-10.35892-14.387389-12.469071v-198.354142a12.852735 12.852735 0 0 1 12.852735-12.852735h109.152328c62.537186 0 76.732744-37.023549 33.378743-81.144876l-74.814425-74.622594a13.236398 13.236398 0 0 1 0-19.183185s28.966611-29.92577 71.16962-71.745116 72.320611-70.402292 72.320611-70.402292a13.42823 13.42823 0 0 1 19.183186 0s30.884929 30.309434 75.006257 74.238929 79.226558 29.158443 79.226558-33.186911v-112.988966a13.044566 13.044566 0 0 1 12.852734-13.044566h200.656125a13.044566 13.044566 0 0 1 12.852735 13.044566v112.797134c0 62.153522 38.366372 76.732744 82.487699 33.186911s76.732744-74.814425 76.732744-74.814425a13.811894 13.811894 0 0 1 19.183186 0s30.309434 28.966611 72.512443 70.977788 71.16962 72.128779 71.16962 72.128779a13.044566 13.044566 0 0 1 0 19.183186l-74.622594 74.047098c-44.121328 43.929496-29.158443 78.267399 33.186912 78.267399h105.507523a13.044566 13.044566 0 0 1 12.852734 13.044566v92.079293 25.705469zM510.752458 193.702028a191.831859 191.831859 0 1 0 191.831859 191.83186 191.831859 191.831859 0 0 0-191.831859-191.83186z"  horiz-adv-x="1024" />

    
    <glyph glyph-name="kanban" unicode="&#59164;" d="M1005.933663 140.104446c0-22.402258-18.788991-41.191249-41.191249-41.191249H59.257586c-22.402258 0-41.191249 18.788991-41.191249 41.191249v592.575865c0 22.402258 18.788991 41.191249 41.191249 41.191249h906.207481c22.402258 0 41.191249-18.788991 41.191249-41.191249v-592.575865zM71.542696 192.858151c0-22.402258 18.788991-41.191249 41.191249-41.191249h799.254764c22.402258 0 41.191249 18.788991 41.191249 41.191249V679.203952c0 22.402258-18.788991 41.191249-41.191249 41.191249H112.733945c-22.402258 0-41.191249-18.788991-41.191249-41.191249v-486.345801zM994.371207-5.87156H30.351447c-16.62103 0-30.351447 13.730416-30.351447 30.351447 0 16.62103 13.730416 30.351447 30.351447 30.351447h964.01976c16.62103 0 30.351447-13.730416 30.351446-30.351447-0.722653-16.62103-13.730416-30.351447-30.351446-30.351447zM894.645025 570.805928c0 24.570219-20.234298 44.804517-44.804517 44.804517-24.570219 0-44.804517-20.234298-44.804516-44.804517 0-8.671842 2.890614-17.343684 7.226534-23.847565L674.235709 362.681722h-5.058574c-3.613267 0-7.949188-0.722653-11.562456-1.445307L391.678193 551.294284c2.890614 5.781228 4.335921 12.285109 4.335921 19.511644 0 24.570219-20.234298 44.804517-44.804516 44.804517-24.570219 0-44.804517-20.234298-44.804517-44.804517 0-10.117149 3.613267-19.511644 9.394496-27.460833L180.663373 362.681722h-2.890614c-24.570219 0-44.804517-20.234298-44.804516-44.804517 0-24.570219 20.234298-44.804517 44.804516-44.804516 24.570219 0 44.804517 20.234298 44.804517 44.804516 0 7.226535-1.445307 13.730416-4.335921 19.511645l138.026817 184.27664 269.549753-192.225829c-0.722653-3.613267-1.445307-7.226535-1.445307-10.839802 0-24.570219 20.234298-44.804517 44.804517-44.804517 24.570219 0 44.804517 20.234298 44.804516 44.804517 0 5.781228-1.445307 11.562456-3.613267 17.343684l143.085392 190.780522c23.124912 1.445307 41.191249 20.956951 41.191249 44.081863z"  horiz-adv-x="1024" />

    
    <glyph glyph-name="mobandingyi" unicode="&#58891;" d="M677.494949 211.911111l-92.70303 91.151515-58.181818-155.539394L677.494949 211.911111zM974.739394 503.59596l-95.676768 98.779798-277.074747-273.842425 99.426262-103.175757 273.325253 278.238384zM1053.478788 579.10303c12.670707-2.327273-0.258586 30.254545 0 42.666667 0 0-25.341414 28.056566-54.432323 49.389899-29.090909 21.333333-51.587879 0-51.587879 0l-49.260606-49.389899 100.072727-99.943434s42.149495 42.666667 55.208081 57.276767zM356.331313 602.763636h-212.428283v-183.20808h212.428283V602.763636z m-55.337374-127.741414h-101.624242v76.541414h101.624242v-76.541414zM426.79596 575.612121h222.383838v-54.30303h-222.383838zM426.79596 229.365657h42.278787v-54.303031H426.79596zM143.90303 163.943434h212.428283V348.185859h-212.428283v-184.242425z m55.337374 129.939394h101.624242v-75.50707h-101.624242v75.50707zM426.79596 486.012121H713.69697v-54.30303H426.79596zM426.79596 318.965657h42.278787v-54.303031H426.79596zM783.385859 888.630303H74.989899c-47.838384 0-74.989899-39.305051-74.989899-70.076768v-707.10303c0-60.509091 19.393939-78.351515 62.836364-78.351515h454.723232l-43.313131 56.371717h-415.676768V667.280808H800.323232v-166.4h56.371717V818.553535c-0.129293 39.175758-26.375758 71.111111-73.30909 70.076768z m-673.616162-145.325252c-16.678788 0-30.254545 13.575758-30.254545 30.254545 0 16.678788 13.575758 30.254545 30.254545 30.254545 16.678788 0 30.254545-13.575758 30.254545-30.254545-0.129293-16.808081-13.575758-30.254545-30.254545-30.254545z m83.911111 0c-16.678788 0-30.254545 13.575758-30.254545 30.254545 0 16.678788 13.575758 30.254545 30.254545 30.254545 16.678788 0 30.254545-13.575758 30.254546-30.254545 0-16.808081-13.575758-30.254545-30.254546-30.254545z m82.747475 0c-16.678788 0-30.254545 13.575758-30.254546 30.254545 0 16.678788 13.575758 30.254545 30.254546 30.254545 16.678788 0 30.254545-13.575758 30.254545-30.254545 0-16.808081-13.575758-30.254545-30.254545-30.254545zM803.943434 505.923232v-415.676767H432.614141v-58.311111h349.478788c60.509091 0 78.351515 19.393939 78.351515 62.836363V549.365657l-56.50101-43.442425z"  horiz-adv-x="1168" />

    
    <glyph glyph-name="zuzhijiagou" unicode="&#58892;" d="M640 825.6c6.4 0 19.2-6.4 19.2-19.2V640c0-6.4-6.4-19.2-19.2-19.2H390.4c-6.4 6.4-12.8 12.8-12.8 25.6V812.8c0 6.4 6.4 19.2 19.2 19.2H640m0 44.8H390.4c-38.4 0-64-32-64-64v-166.4c0-32 25.6-64 64-64H640c38.4 0 64 32 64 64V812.8c0 32-25.6 64-64 64zM230.4 76.8v-160H70.4v160h160m19.2 51.2h-192c-19.2 0-32-12.8-32-32v-192c0-19.2 12.8-32 32-32h192c19.2 0 32 12.8 32 32v192c0 19.2-19.2 32-32 32zM588.8 76.8v-160H428.8v160h160m12.8 51.2h-192c-19.2 0-32-12.8-32-32v-192c0-19.2 12.8-32 32-32h192c19.2 0 32 12.8 32 32v192c0 19.2-12.8 32-32 32zM953.6 76.8v-160h-160v160h160m12.8 51.2h-192c-19.2 0-32-12.8-32-32v-192c0-19.2 12.8-32 32-32h192c19.2 0 32 12.8 32 32v192c0 19.2-12.8 32-32 32zM505.6 537.6c-12.8 0-19.2-6.4-19.2-19.2v-320c0-12.8 6.4-19.2 19.2-19.2s19.2 6.4 19.2 19.2v320c6.4 12.8-6.4 19.2-19.2 19.2zM851.2 428.8h-704c-12.8 0-19.2-12.8-19.2-19.2s6.4-25.6 19.2-25.6h704c12.8 0 19.2 12.8 19.2 19.2s-6.4 25.6-19.2 25.6zM147.2 428.8c-12.8 0-19.2-12.8-19.2-19.2v-179.2c0-12.8 12.8-19.2 19.2-19.2s19.2 12.8 19.2 19.2V403.2c0 12.8-6.4 25.6-19.2 25.6zM851.2 428.8c-12.8 0-19.2-12.8-19.2-19.2v-179.2c0-12.8 12.8-19.2 19.2-19.2s19.2 12.8 19.2 19.2V403.2c0 12.8-6.4 25.6-19.2 25.6z"  horiz-adv-x="1024" />

    
    <glyph glyph-name="renyuan-lan" unicode="&#58893;" d="M443.001905 600.502857m-295.497143 0a295.497143 295.497143 0 1 1 590.994286 0 295.497143 295.497143 0 1 1-590.994286 0ZM36.571429-128h812.373333l37.059048 39.009524c-18.285714 248.198095-210.16381 443.489524-443.001905 443.489524S18.529524 158.72 0-88.990476M785.554286 814.32381m-36.815238 0a36.815238 36.815238 0 1 1 73.630476 0 36.815238 36.815238 0 1 1-73.630476 0ZM849.432381 452.998095h-63.878095a37.059048 37.059048 0 1 1 0-73.142857h63.878095a37.059048 37.059048 0 0 1 0 73.142857zM787.992381 851.139048v-70.704762c100.937143 0 172.129524-63.146667 172.129524-158.232381a172.373333 172.373333 0 0 0-172.129524-172.373334v-70.704761a246.00381 246.00381 0 0 1 246.003809 246.003809c0 136.045714-101.912381 226.011429-246.003809 226.011429zM1107.626667 59.001905a36.571429 36.571429 0 0 0-36.327619 33.889524c-11.702857 160.670476-136.289524 286.47619-283.550477 286.47619a36.571429 36.571429 0 0 0 0 73.142857c185.295238 0 341.333333-155.550476 356.449524-354.255238a36.571429 36.571429 0 0 0-33.889524-39.253333z"  horiz-adv-x="1144" />

    
    <glyph glyph-name="shigong" unicode="&#59173;" d="M1008 32c-96 137.6-192 275.2-284.8 412.8 0 3.2-3.2 3.2-3.2 3.2-16 6.4-32 9.6-48 6.4-12.8-3.2-22.4-9.6-25.6-25.6-3.2-12.8 0-25.6 6.4-38.4 6.4-6.4 12.8-12.8 19.2-22.4 3.2-3.2 6.4-6.4 6.4-9.6 3.2-3.2 3.2-6.4-3.2-9.6l-9.6-9.6c-3.2-6.4-3.2-9.6-6.4-16l-9.6-67.2c0-9.6-3.2-19.2-6.4-28.8-3.2-9.6-9.6-19.2-22.4-19.2-9.6 0-9.6-3.2-9.6-12.8 0-12.8-3.2-25.6-6.4-38.4-6.4-12.8-9.6-28.8-16-41.6l-9.6-38.4c0-6.4 0-12.8 6.4-16 6.4-6.4 12.8-9.6 19.2-16 3.2-3.2 9.6-9.6 12.8-16 3.2-6.4 3.2-9.6-6.4-12.8h-12.8c-32 0-67.2 3.2-99.2 3.2-64 3.2-131.2 3.2-195.2 6.4-92.8 3.2-185.6 6.4-278.4 6.4-3.2 0-6.4 0-6.4-3.2-6.4-6.4-12.8-12.8-16-19.2-9.6-9.6 6.4-32 28.8-32h969.6c9.6 0 19.2 6.4 22.4 16 0 3.2 0 3.2 3.2 6.4v9.6c-9.6 3.2-12.8 12.8-19.2 22.4zM48 70.4c19.2-3.2 35.2 3.2 48 19.2 6.4 9.6 9.6 19.2 16 28.8 22.4 57.6 51.2 112 83.2 163.2 6.4 12.8 16 22.4 25.6 32 6.4 6.4 16 6.4 22.4 0 3.2-3.2 9.6-9.6 12.8-16 3.2-6.4 6.4-9.6 6.4-16v-182.4c0-16 6.4-28.8 25.6-28.8 19.2 0 35.2 0 54.4 3.2 6.4 0 12.8 3.2 19.2 6.4 12.8 6.4 22.4 16 25.6 32 0 12.8 3.2 25.6 3.2 38.4 0 57.6-3.2 115.2-3.2 172.8 0 3.2 0 6.4-3.2 6.4-9.6 16-16 35.2-25.6 51.2 0 0 0 3.2-3.2 6.4h3.2c54.4-35.2 105.6-70.4 160-105.6 3.2 0 3.2-3.2 6.4-6.4 6.4-9.6 9.6-22.4 16-32 6.4-9.6 16-12.8 25.6-3.2 22.4 19.2 38.4 41.6 44.8 70.4 3.2 12.8-3.2 22.4-16 25.6-9.6 3.2-16 3.2-25.6 3.2-32 0-57.6 16-76.8 41.6-6.4 12.8-16 22.4-25.6 32-19.2 22.4-32 44.8-35.2 73.6-3.2 12.8-3.2 25.6-3.2 38.4-3.2 28.8-12.8 57.6-32 76.8 9.6 0 19.2 0 25.6 3.2 48 12.8 76.8 60.8 67.2 112C476.8 768 432 800 384 790.4c-48-6.4-83.2-54.4-76.8-102.4 3.2-19.2 9.6-35.2 19.2-48-44.8 9.6-89.6 6.4-131.2-6.4-41.6-9.6-80-32-115.2-57.6-6.4-3.2-9.6-9.6-12.8-16-6.4-9.6-6.4-19.2 3.2-28.8 3.2-3.2 9.6-6.4 12.8-9.6 16-6.4 32-16 48-22.4 6.4-3.2 12.8-6.4 19.2-12.8 3.2-3.2 6.4-6.4 6.4-9.6 0-9.6 0-19.2-3.2-32-3.2-19.2-12.8-35.2-22.4-54.4-28.8-51.2-54.4-102.4-76.8-156.8C38.4 188.8 25.6 144 19.2 96c0-9.6 12.8-25.6 28.8-25.6zM355.2 448c3.2 19.2 9.6 38.4 12.8 57.6 6.4-32 9.6-60.8 28.8-89.6l-38.4 28.8c-3.2 0-3.2 3.2-3.2 3.2z m-198.4 108.8c25.6 6.4 51.2 9.6 76.8 16l-28.8-48c-19.2 9.6-32 19.2-48 32z"  horiz-adv-x="1027" />

    
    <glyph glyph-name="shangchuan" unicode="&#58890;" d="M768.31008 96a32 32 0 0 0 0 64 192 192 0 0 1 0 384h-28.256l-5.696 27.904a223.776 223.776 0 0 1-444.096 0l-3.648-29.248-29.472 1.28H256.95008A191.968 191.968 0 1 1 256.31008 160a32 32 0 0 0 0-64 256 256 0 0 0-24.896 510.816 287.808 287.808 0 0 0 561.792 0A256 256 0 0 0 768.31008 96zM512.31008-64a30.784 30.784 0 0 0-22.72 9.6 30.432 30.432 0 0 0-9.28 22.4 31.968 31.968 0 0 0 2.56 12.16 36.768 36.768 0 0 0 6.72 10.56 33.504 33.504 0 0 0 45.44 0 37.056 37.056 0 0 0 6.72-10.56A32 32 0 0 0 544.31008-32a32.224 32.224 0 0 0-32-32zM512.31008 32.736a32 32 0 0 0-32 32V416a32 32 0 0 0 64 0v-351.264a32 32 0 0 0-32-32zM640.31008 280.576a31.904 31.904 0 0 0-22.624 9.376L512.31008 395.328l-105.376-105.376a32 32 0 0 0-45.248 45.248l112 112a55.968 55.968 0 0 0 77.248 0l112-112A32 32 0 0 0 640.31008 280.576z"  horiz-adv-x="1024" />

    
    <glyph glyph-name="xiazai" unicode="&#58898;" d="M768.31008 96a32 32 0 0 0 0 64 192 192 0 0 1 0 384h-28.256l-5.696 27.904a223.776 223.776 0 0 1-444.096 0l-3.648-29.248-29.472 1.28H256.95008A191.968 191.968 0 1 1 256.31008 160a32 32 0 0 0 0-64 256 256 0 0 0-24.896 510.816 287.808 287.808 0 0 0 561.792 0A256 256 0 0 0 768.31008 96zM512.31008-32a32 32 0 0 0-32 32V352a32 32 0 0 0 64 0v-352a32 32 0 0 0-32-32zM512.31008 416a31.68 31.68 0 0 0-32 32 33.6 33.6 0 0 0 9.28 22.72 49.664 49.664 0 0 0 4.8 3.84 23.84 23.84 0 0 0 5.76 2.88 20.928 20.928 0 0 0 5.76 1.92 30.592 30.592 0 0 0 18.56-1.92 28.8 28.8 0 0 0 17.28-17.28A31.68 31.68 0 0 0 512.31008 416zM512.31008-47.2a54.272 54.272 0 0 0-38.624 16l-112 112a32 32 0 0 0 45.248 45.248L512.31008 20.672l105.376 105.376a32 32 0 0 0 45.248-45.248l-112-112a54.272 54.272 0 0 0-38.624-16z"  horiz-adv-x="1024" />

    
    <glyph glyph-name="baocun" unicode="&#59012;" d="M867.097-148.73c-236.782 0-473.561 0-710.319 0-1.621 0.57-3.219 1.368-4.881 1.662-41.11 7.36-68.489 30.932-82.43 70.13-2.399 6.751-3.64 13.94-5.426 20.924 0 236.778 0 473.558 0 710.32 0.566 1.638 1.345 3.215 1.662 4.897 8.433 45.148 35.242 73.16 79.338 84.998 3.893 1.052 7.823 1.894 11.737 2.838 203.532 0 407.047 0 610.579 0 25.424-5.612 45.38-20.776 63.487-38.124 30.071-28.829 59.594-58.25 88.509-88.258 18.188-18.861 34.527-39.428 40.456-66.068 0-203.536 0-407.071 0-610.603-0.565-1.62-1.344-3.198-1.66-4.88-8.434-45.168-35.223-73.157-79.34-85.019C874.939-146.943 871.006-147.804 867.097-148.73zM511.989-114.452c101.755 0 203.491-0.024 305.228 0.04 25.886 0 39.532 13.606 39.532 39.22 0.021 111.658 0.021 223.32 0 334.962 0 25.717-13.752 39.597-39.216 39.597-203.789 0.02-407.553 0.02-611.321 0-25.063-0.023-39.091-13.924-39.091-38.862-0.041-111.935-0.041-223.89 0.02-335.824 0-4.059 0.108-8.222 1.032-12.134 4.186-17.705 17.476-26.958 38.609-26.979C308.518-114.477 410.253-114.452 511.989-114.452zM494.429 402.194c72.591 0 145.161 0 217.729 0 27.884 0.02 41.302 13.374 41.302 41.174 0.021 76.079 0.021 152.142 0 228.221 0 27.989-13.146 41.154-41.197 41.154-145.158 0.02-290.296 0.02-435.434 0-27.487 0-40.922-13.29-40.942-40.628-0.064-76.355-0.064-152.708 0-229.083 0.02-27.315 13.604-40.817 40.837-40.817C349.291 402.194 421.861 402.194 494.429 402.194zM581.782 677.518c34.13 0 67.269 0 101.189 0 0-79.969 0-159.54 0-239.617-33.668 0-67.06 0-101.189 0C581.782 517.556 581.782 597.147 581.782 677.518z"  horiz-adv-x="1024" />

    
    <glyph glyph-name="excel" unicode="&#59049;" d="M965.881165 140.971203c-0.103212 179.073307-0.309637 358.146614 0.206424 537.323133-0.712165 17.546088 0.526383 36.949996-10.104482 52.235736-15.172205 10.42444-34.369689 9.185893-51.822886 9.908379-103.315493-0.516061-206.630986-0.309637-309.936158-0.309637v82.569824h-61.308094c-158.327639-27.970528-316.758489-55.115358-475.18934-82.673037v-722.382752c157.50194-27.557679 315.107093-53.980023 472.412929-82.569824h64.094827v92.891052c107.031135 0.206425 214.051949-0.309637 320.990192 0 17.236451 0.722486 43.039521 1.238547 47.168013 22.706702 6.264985 29.611603 2.972514 60.265651 3.488575 90.300424z m-604.204691 76.366767c-17.546088 43.039521-38.900709 84.63407-51.502928 129.644946-14.026549-41.914507-34.060053-81.444811-50.150847-122.512978-22.603489 0.309637-45.2173 1.238547-67.810469 2.167458 26.525556 51.915777 52.122202 104.244403 79.473456 155.850544-23.222763 53.154325-48.726518 105.276526-72.661445 158.121214 22.706702 1.34176 45.403082 2.683519 68.120105 3.922067 15.37863-40.356002 32.202232-80.195942 44.907663-121.584067 13.6137 43.865219 33.95684 85.150132 51.389395 127.570379 23.325975 1.651396 46.755163 3.096368 70.184351 4.231703-27.557679-56.457118-55.21857-112.914235-83.28199-169.164927 28.383377-57.798877 57.386028-115.184905 85.862297-172.983783-24.894802 1.444972-49.655428 2.982835-74.529588 4.737444z m573.137794-158.42053h-340.600526v61.927369h82.569825v72.248596h-82.569825v41.284912h82.569825v72.248597h-82.569825v41.284912h82.569825v72.248597h-82.569825v41.284912h82.569825v72.248596h-82.569825v41.284912h82.569825v72.248597h-82.569825v61.927368h340.600526v-650.237368zM718.068479 574.978843h144.497193v72.248597h-144.497193v-72.248597zM718.068479 461.445335h144.497193v72.248596h-144.497193v-72.248596zM718.068479 347.911826h144.497193v72.248597h-144.497193v-72.248597zM718.068479 234.378317h144.497193v72.248597h-144.497193v-72.248597zM718.068479 120.844809h144.497193v72.248596h-144.497193v-72.248596z"  horiz-adv-x="1024" />

    
    <glyph glyph-name="jiagepaixu" unicode="&#58887;" d="M530.6368-126.56640000000004L913.408 313.34400000000005H148.0704zM530.2272 894.5664L147.456 454.656h765.3376z"  horiz-adv-x="1024" />

    
    <glyph glyph-name="pdf" unicode="&#58899;" d="M1016.32 587.264h-195.584c-57.344 0-103.936 46.592-103.936 103.936V891.904H103.936C46.592 891.904 0 845.312 0 787.968v-812.032c0-56.832 46.08-102.912 102.912-102.912h818.176c56.832 0 102.912 46.08 102.912 102.912v604.16l-7.68 7.168zM716.8 691.2c0-57.344 46.592-103.936 103.936-103.936h195.584L716.8 891.904V691.2zM825.856 304.128c-61.952 19.968-124.416 11.776-186.368 4.096-50.688 31.744-89.088 79.36-116.736 130.56-11.776 19.968-27.136 43.52-23.552 71.168 7.68 55.296 15.36 114.688 15.36 169.984 0 15.872-7.68 35.328-23.552 47.616-23.552 11.776-66.048 3.584-70.144-27.648-11.776-79.36 11.776-154.624 27.136-225.792-31.232-78.848-70.144-154.112-109.056-229.376-7.68-15.872-19.456-31.744-34.816-39.424-58.368-31.744-120.32-67.584-147.968-130.56-15.36-47.616 50.688-67.584 81.92-43.52 58.368 39.424 93.184 110.592 128.512 169.984 81.408 23.552 163.328 47.616 248.832 55.296 58.368-23.552 120.32-59.392 190.464-55.296 47.104 0 58.88 87.04 19.968 102.912zM192 54.784c23.552 43.52 62.464 83.456 97.28 118.784-27.136-43.52-54.272-87.04-97.28-118.784zM464.384 711.68c31.232-43.52 27.136-102.912 7.68-154.624-11.776 51.712-15.872 102.912-7.68 154.624z m-77.824-471.04c31.232 55.296 58.368 114.688 81.92 174.08 23.552-43.52 58.368-82.944 97.28-122.368-62.976-11.776-120.832-31.744-179.2-51.712z"  horiz-adv-x="1024" />

    
    <glyph glyph-name="bianji" unicode="&#58897;" d="M903.5 403.5c-15.5 0-28-12.5-28-28v-299.1c0-48.5-39.4-87.9-87.9-87.9H209.4c-48.5 0-87.9 39.4-87.9 87.9V654.6c0 48.5 39.4 87.9 87.9 87.9h298.9c15.5 0 28 12.5 28 28s-12.5 28-28 28H209.4c-79.3 0-143.9-64.5-143.9-143.9v-578.2c0-79.3 64.5-143.9 143.9-143.9h578.2c79.3 0 143.9 64.5 143.9 143.9V375.5c-0.1 15.5-12.6 28-28 28zM730.3 750.6L363.4 380.2h-0.1s0-0.1-0.1-0.1l-27.9-28.2c-4.4-4.4-7.2-10.1-7.9-16.3L312 210.3c-1.1-8.6 1.9-17.2 8.1-23.3 5.3-5.2 12.4-8.1 19.7-8.1 1.2 0 2.5 0.1 3.7 0.2l125.2 16.6c6.1 0.8 11.9 3.7 16.2 8.1l27.2 27.4s0.1 0 0.1 0.1c0 0 0 0.1 0.1 0.1L879 601.6s0.1 0.1 0.2 0.1c0 0 0.1 0.1 0.1 0.2l50.7 51.2c19.8 20 30.6 46.5 30.5 74.6-0.1 28.1-11.2 54.5-31.2 74.3s-45.9 30.1-74.6 30.5c-28.1-0.1-54.5-11.2-74.3-31.2l-50.1-50.7z m-238-459.9l-69.7 69.7 327.5 330.7 69.7-69.7-327.5-330.7z m-120.2-51.4l9.8 79.9 1.4 1.4 69.7-69.7-1-1-79.9-10.6zM855 776.5c13.6-0.6 25.6-5 34.9-14.3 9.4-9.3 14.5-21.6 14.6-34.8 0.1-13.2-5-25.6-14.3-34.9l-31-31.3-69.7 69.7 30.7 31c9.3 9.3 21.6 14.5 34.8 14.6zM748.8 205.8c15.5 0 28 12.5 28 28s-12.5 28-28 28H596.7c-15.5 0-28-12.5-28-28s12.5-28 28-28h152.1zM215.3 91.2c0-15.5 12.5-28 28-28h510.3c15.5 0 28 12.5 28 28s-12.5 28-28 28H243.3c-15.5 0-28-12.5-28-28z"  horiz-adv-x="1024" />

    
    <glyph glyph-name="zu" unicode="&#59788;" d="M191.4624 384m-136.533333 0a136.533333 136.533333 0 1 1 273.066666 0 136.533333 136.533333 0 1 1-273.066666 0ZM566.929067 8.533333m-136.533334 0a136.533333 136.533333 0 1 1 273.066667 0 136.533333 136.533333 0 1 1-273.066667 0ZM566.929067 759.466667m-136.533334 0a136.533333 136.533333 0 1 1 273.066667 0 136.533333 136.533333 0 1 1-273.066667 0ZM301.3376 118.391467m-136.533333 0a136.533333 136.533333 0 1 1 273.066666 0 136.533333 136.533333 0 1 1-273.066666 0ZM832.5376 649.591467m-136.533333 0a136.533333 136.533333 0 1 1 273.066666 0 136.533333 136.533333 0 1 1-273.066666 0ZM297.070933 653.858133m-139.195733 0a139.195733 139.195733 0 1 1 278.391467 0 139.195733 139.195733 0 1 1-278.391467 0Z"  horiz-adv-x="1024" />

    
    <glyph glyph-name="qita" unicode="&#58886;" d="M512 896C229.286957 896 0 666.713043 0 384s229.286957-512 512-512 512 229.286957 512 512S794.713043 896 512 896z m-37.843478-770.226087c0-24.486957-20.034783-44.521739-44.521739-44.521739h-175.86087c-24.486957 0-44.521739 20.034783-44.521739 44.521739v175.86087c0 24.486957 20.034783 44.521739 44.521739 44.521739h175.86087c24.486957 0 44.521739-20.034783 44.521739-44.521739v-175.86087z m0 351.721739c0-24.486957-20.034783-44.521739-44.521739-44.521739h-175.86087c-24.486957 0-44.521739 20.034783-44.521739 44.521739v175.86087c0 24.486957 20.034783 44.521739 44.521739 44.521739h175.86087c24.486957 0 44.521739-20.034783 44.521739-44.521739v-175.86087zM823.652174 125.773913c0-24.486957-20.034783-44.521739-44.521739-44.521739h-175.86087c-24.486957 0-44.521739 20.034783-44.521739 44.521739v175.86087c0 24.486957 20.034783 44.521739 44.521739 44.521739H779.130435c24.486957 0 44.521739-20.034783 44.521739-44.521739v-175.86087z m24.486956 407.373913l-124.660869-124.660869c-17.808696-17.808696-44.521739-17.808696-62.330435 0l-124.660869 124.660869c-17.808696 17.808696-17.808696 44.521739 0 62.330435l124.660869 124.660869c17.808696 17.808696 44.521739 17.808696 62.330435 0l124.660869-124.660869c17.808696-17.808696 17.808696-44.521739 0-62.330435z"  horiz-adv-x="1024" />

    
    <glyph glyph-name="bao" unicode="&#58882;" d="M132.096 316.416l339.968 0 0 144.384-371.712 0 0 71.68 812.032 0 0-71.68-363.52 0 0-144.384 343.04 0 0-67.584-343.04 0 0-216.064 435.2 0 0-64.512-944.128 0 0 64.512 432.128 0 0 216.064-339.968 0 0 67.584zM507.904 864.256q21.504-29.696 38.912-57.344t29.696-54.272l-44.032-24.576 419.84 0 0-163.84-79.872 0 0 92.16-719.872 0 0-92.16-79.872 0 0 163.84 423.936 0-16.384 28.672q-14.336 26.624-24.576 45.056t-19.456 30.72zM668.672 176.128l55.296 44.032q27.648-23.552 55.808-56.32t60.928-71.68l-60.416-48.128z"  horiz-adv-x="1024" />

    
    <glyph glyph-name="shi" unicode="&#58883;" d="M504.340827 896l73.541091-20.404706c-5.452748-5.452748-10.905396-12.24922-16.342853-20.404706C689.544974 724.579086 837.923907 633.415881 1006.673665 581.717364c-19.060982-27.216568-34.028331-51.713808-44.902045-73.477628-46.26116 16.326463-93.881334 39.464688-142.845331 69.399385l0-363.278271-539.336249 0 0-195.919265c2.718129 0 8.155586 1.359114 16.326463 4.077243 108.833391 13.608234 185.029148 25.857454 228.572179 36.74646-5.452748-19.060982-8.170877-43.542931-8.170877-73.477628-65.305751-10.873715-149.657094-27.200178-253.054128-48.979289-27.231859-8.155586-50.371184-17.685477-69.415776-28.575583l-28.559192 73.477628c27.200178 13.608234 40.808412 34.01194 40.808412 61.228508l0 522.45001C162.554089 540.893661 116.293029 517.770727 67.329032 496.006907 53.705407 517.770727 40.097173 539.534547 26.50423 561.313658 230.658923 648.383229 389.942153 759.95114 504.340827 896zM520.682581 806.099665c-70.743109-78.930376-161.906314-151.032599-273.457834-216.33935l546.931986 0C674.418018 665.940781 583.271203 738.059394 520.682581 806.099665zM279.590039 524.454563l0-89.228935 469.936876 0 0 89.228935L279.590083 524.454563zM279.590039 369.919889l0-90.252344 469.936876 0 0 90.252344L279.590083 369.919889zM410.490175 198.419221c24.481949-8.155586 69.383994-24.481949 134.689746-48.979289 35.371055-13.608234 62.572232-24.498339 81.633214-32.652826 5.436358 2.718129 13.591844 6.811763 24.481949 12.24922 87.069571 38.090283 152.376322 70.743109 195.919253 97.959677l48.979289-69.383994c-19.044592-8.170877-47.620174-20.420097-85.710457-36.731168-40.824802-19.060982-70.759499-32.669216-89.7877-40.824802 27.200178-10.890105 66.649475-25.857454 118.363283-44.902045 43.52654-13.591844 74.820352-24.481949 93.881334-32.652826l-32.652826-77.554871C745.177517-4.295505 571.021984 66.447604 377.83725 137.207103L410.490175 198.419221zM451.299586 696.387182l69.383994 32.652826c5.436358-10.890105 13.608234-24.498339 24.498339-40.824802 16.311072-27.216568 28.559192-47.620174 36.731168-61.212118l-73.461237-32.652826C500.278875 621.550439 481.234283 655.563479 451.299586 696.387182z"  horiz-adv-x="1024" />

    
    <glyph glyph-name="icon7" unicode="&#58915;" d="M511.999998 812c-282.756899 0-511.978511-229.221612-511.978511-511.978511s229.221612-511.98158 511.978511-511.98158 511.978511 229.224682 511.978511 511.98158S794.756897 812 511.999998 812zM212.289985 75.11516l-0.306992 35.858696 65.911152-0.057305 0.008186 74.746378-66.363454-0.355087 0.568958 35.954887 175.523619 1.168616 0.284479-37.402865-59.634192-0.506537 0.759293-73.02006 200.314235-0.711198 13.601786 146.903791-10.051937 1.270946c0 0-32.863479-33.537837-87.411839-10.069333-27.27418 11.730159-37.294394 35.087123-39.928385 55.598272-7.614421 59.21566 46.809095 82.081437 45.215808 90.301655-0.955768 4.935406-23.303752 25.891693-17.156752 55.43045 5.469572 26.292829 17.941628 39.229466 34.160008 47.935756 16.21224 8.706289 31.071669 7.139607 31.071669 7.139607-14.795984 107.958804 149.648298 93.868901 124.009362 0.839111 0 0 44.561915-1.043772 56.263421-43.967374 11.698436-42.912345-14.739702-68.540026-14.739702-68.540026s45.554522-25.397437 44.055378-78.764901c-1.502213-53.362348-44.37158-75.849502-66.514903-75.980485-22.140253-0.14224-38.881542 7.472182-39.333844 7.688099l-24.694425 11.979846-8.319479 0.290619 10.518564-147.228179 154.780179 0.446162 0.412392-37.059034L212.289985 75.11516z"  horiz-adv-x="1024" />

    
    <glyph glyph-name="loufang" unicode="&#58959;" d="M1007.282372-40.600731 957.286301-40.600731 957.286301 579.327649C957.286301 595.991365 948.439172 611.400694 934.055192 619.791782L680.274007 767.854026C665.80191 776.301714 647.918271 776.358313 633.389622 768.004078 618.866232 759.648529 609.907317 744.157592 609.907317 727.389893L609.907317-40.600731 556.683825-40.600731 556.683825 849.164007C556.683825 864.907664 548.771782 879.60227 535.635893 888.271087 522.500007 896.93464 505.890763 898.41542 491.434449 892.20404L94.839288 721.889287C77.644796 714.50513 66.496126 697.574215 66.496126 678.847938L66.496126-40.600731 16.678918-40.600731C7.520095-40.600731 0.095978-48.029642 0.095978-57.192052L0.095978-111.174066C0.095978-120.336476 7.520095-127.765387 16.678918-127.765387L1007.282372-127.765387C1016.437249-127.765387 1023.861365-120.336476 1023.861365-111.174066L1023.861365-57.192052C1023.861365-48.029642 1016.437249-40.600731 1007.282372-40.600731L1007.282372-40.600731ZM739.184278 600.150713C739.184278 609.318387 746.607081 616.748614 755.767219 616.748614L808.440968 616.748614C817.601107 616.748614 825.023909 609.318387 825.023909 600.150713L825.023909 547.429664C825.023909 538.267254 817.601107 530.837027 808.440968 530.837027L755.767219 530.837027C746.607081 530.837027 739.184278 538.267254 739.184278 547.429664L739.184278 600.150713 739.184278 600.150713ZM739.184278 467.400395C739.184278 476.568071 746.607081 483.996982 755.767219 483.996982L808.440968 483.996982C817.601107 483.996982 825.023909 476.568071 825.023909 467.400395L825.023909 414.678032C825.023909 405.515622 817.601107 398.086711 808.440968 398.086711L755.767219 398.086711C746.607081 398.086711 739.184278 405.515622 739.184278 414.678032L739.184278 467.400395 739.184278 467.400395ZM739.184278 334.654028C739.184278 343.816439 746.607081 351.246665 755.767219 351.246665L808.440968 351.246665C817.601107 351.246665 825.023909 343.816439 825.023909 334.654028L825.023909 281.932982C825.023909 272.765306 817.601107 265.335079 808.440968 265.335079L755.767219 265.335079C746.607081 265.335079 739.184278 272.765306 739.184278 281.932982L739.184278 334.654028 739.184278 334.654028ZM739.184278 201.903712C739.184278 211.071388 746.607081 218.500299 755.767219 218.500299L808.440968 218.500299C817.601107 218.500299 825.023909 211.071388 825.023909 201.903712L825.023909 149.18135C825.023909 140.018937 817.601107 132.584763 808.440968 132.584763L755.767219 132.584763C746.607081 132.584763 739.184278 140.018937 739.184278 149.18135L739.184278 201.903712 739.184278 201.903712ZM739.184278 69.15208C739.184278 78.319754 746.607081 85.749983 755.767219 85.749983L808.440968 85.749983C817.601107 85.749983 825.023909 78.319754 825.023909 69.15208L825.023909 16.431033C825.023909 7.268621 817.601107-0.161606 808.440968-0.161606L755.767219-0.161606C746.607081-0.161606 739.184278 7.268621 739.184278 16.431033L739.184278 69.15208 739.184278 69.15208ZM347.855046 732.902345C347.855046 742.064755 355.277848 749.49893 364.437985 749.49893L417.116997 749.49893C426.277134 749.49893 433.699936 742.064755 433.699936 732.902345L433.699936 680.179982C433.699936 671.012306 426.277134 663.583395 417.116997 663.583395L364.437985 663.583395C355.277848 663.583395 347.855046 671.012306 347.855046 680.179982L347.855046 732.902345 347.855046 732.902345ZM347.855046 600.150713C347.855046 609.318387 355.277848 616.748614 364.437985 616.748614L417.116997 616.748614C426.277134 616.748614 433.699936 609.318387 433.699936 600.150713L433.699936 547.429664C433.699936 538.267254 426.277134 530.837027 417.116997 530.837027L364.437985 530.837027C355.277848 530.837027 347.855046 538.267254 347.855046 547.429664L347.855046 600.150713 347.855046 600.150713ZM347.855046 467.400395C347.855046 476.568071 355.277848 483.996982 364.437985 483.996982L417.116997 483.996982C426.277134 483.996982 433.699936 476.568071 433.699936 467.400395L433.699936 414.678032C433.699936 405.515622 426.277134 398.086711 417.116997 398.086711L364.437985 398.086711C355.277848 398.086711 347.855046 405.515622 347.855046 414.678032L347.855046 467.400395 347.855046 467.400395ZM347.855046 334.654028C347.855046 343.816439 355.277848 351.246665 364.437985 351.246665L417.116997 351.246665C426.277134 351.246665 433.699936 343.816439 433.699936 334.654028L433.699936 281.932982C433.699936 272.765306 426.277134 265.335079 417.116997 265.335079L364.437985 265.335079C355.277848 265.335079 347.855046 272.765306 347.855046 281.932982L347.855046 334.654028 347.855046 334.654028ZM347.855046 201.903712C347.855046 211.071388 355.277848 218.500299 364.437985 218.500299L417.116997 218.500299C426.277134 218.500299 433.699936 211.071388 433.699936 201.903712L433.699936 149.18135C433.699936 140.018937 426.277134 132.584763 417.116997 132.584763L364.437985 132.584763C355.277848 132.584763 347.855046 140.018937 347.855046 149.18135L347.855046 201.903712 347.855046 201.903712ZM347.855046 69.15208C347.855046 78.319754 355.277848 85.749983 364.437985 85.749983L417.116997 85.749983C426.277134 85.749983 433.699936 78.319754 433.699936 69.15208L433.699936 16.431033C433.699936 7.268621 426.277134-0.161606 417.116997-0.161606L364.437985-0.161606C355.277848-0.161606 347.855046 7.268621 347.855046 16.431033L347.855046 69.15208 347.855046 69.15208ZM188.164847 600.150713C188.164847 609.318387 195.588965 616.748614 204.747788 616.748614L257.426798 616.748614C266.581675 616.748614 274.009737 609.318387 274.009737 600.150713L274.009737 547.429664C274.009737 538.267254 266.581675 530.837027 257.426798 530.837027L204.747788 530.837027C195.588965 530.837027 188.164847 538.267254 188.164847 547.429664L188.164847 600.150713 188.164847 600.150713ZM188.164847 467.400395C188.164847 476.568071 195.588965 483.996982 204.747788 483.996982L257.426798 483.996982C266.581675 483.996982 274.009737 476.568071 274.009737 467.400395L274.009737 414.678032C274.009737 405.515622 266.581675 398.086711 257.426798 398.086711L204.747788 398.086711C195.588965 398.086711 188.164847 405.515622 188.164847 414.678032L188.164847 467.400395 188.164847 467.400395ZM188.164847 334.654028C188.164847 343.816439 195.588965 351.246665 204.747788 351.246665L257.426798 351.246665C266.581675 351.246665 274.009737 343.816439 274.009737 334.654028L274.009737 281.932982C274.009737 272.765306 266.581675 265.335079 257.426798 265.335079L204.747788 265.335079C195.588965 265.335079 188.164847 272.765306 188.164847 281.932982L188.164847 334.654028 188.164847 334.654028ZM188.164847 201.903712C188.164847 211.071388 195.588965 218.500299 204.747788 218.500299L257.426798 218.500299C266.581675 218.500299 274.009737 211.071388 274.009737 201.903712L274.009737 149.18135C274.009737 140.018937 266.581675 132.584763 257.426798 132.584763L204.747788 132.584763C195.588965 132.584763 188.164847 140.018937 188.164847 149.18135L188.164847 201.903712 188.164847 201.903712ZM188.164847 69.15208C188.164847 78.319754 195.588965 85.749983 204.747788 85.749983L257.426798 85.749983C266.581675 85.749983 274.009737 78.319754 274.009737 69.15208L274.009737 16.431033C274.009737 7.268621 266.581675-0.161606 257.426798-0.161606L204.747788-0.161606C195.588965-0.161606 188.164847 7.268621 188.164847 16.431033L188.164847 69.15208 188.164847 69.15208Z"  horiz-adv-x="1024" />

    
    <glyph glyph-name="changfang" unicode="&#58895;" d="M520.707413 643.795627 519.785813 646.116693 517.577387 645.157547 515.365547 646.116693 514.443947 643.795627 10.16832 424.512853 10.16832 365.810347 517.584213 586.458453 1024.965973 365.810347 1024.965973 424.512853ZM230.90176 115.155627l558.462293 0 0-12.854613-558.462293 0 0 12.854613ZM230.90176 88.142507l558.462293 0 0-12.87168-558.462293 0 0 12.87168ZM230.90176 142.196053l558.462293 0 0-12.878507-558.462293 0 0 12.878507ZM230.90176 327.02464l558.462293 0 0-12.885333-558.462293 0 0 12.885333ZM230.90176 169.243307l558.462293 0 0-12.844373-558.462293 0 0 12.844373ZM230.90176 61.078187l558.462293 0 0-12.86144-558.462293 0 0 12.86144ZM230.90176 34.044587l558.462293 0 0-12.878507-558.462293 0 0 12.878507ZM230.90176 277.41184l558.462293 0 0-12.87168-558.462293 0 0 12.87168ZM230.90176 304.46592l558.462293 0 0-12.844373-558.462293 0 0 12.844373ZM230.90176 6.785707l558.462293 0 0-12.847787-558.462293 0 0 12.847787ZM230.90176 250.381653l558.462293 0 0-12.854613-558.462293 0 0 12.854613ZM230.90176 196.3008l558.462293 0 0-12.87168-558.462293 0 0 12.87168ZM230.90176 223.36512l558.462293 0 0-12.878507-558.462293 0 0 12.878507ZM87.814827 372.1216 87.814827-4.276907 205.50656-4.276907 205.50656 347.569493 814.759253 347.569493 814.759253-4.276907 932.461227-4.276907 932.461227 378.24512 518.720853 557.32224Z"  horiz-adv-x="1025" />

    
    <glyph glyph-name="caidan_wujiaoxingman" unicode="&#59060;" d="M957.297 491.586a14.64 14.64 0 0 1-13.928 10.117H623.967L525.262 805.476a14.643 14.643 0 0 1-13.929 10.117 14.643 14.643 0 0 1-13.927-10.117l-98.698-303.773H79.305a14.645 14.645 0 0 1-13.929-10.117 14.648 14.648 0 0 1 5.32-16.373l258.399-187.736-98.698-303.767a14.647 14.647 0 0 1 13.927-19.168c3.017 0 6.043 0.93 8.61 2.796l258.398 187.743L769.74-32.662a14.633 14.633 0 0 1 17.216 0 14.644 14.644 0 0 1 5.32 16.372L693.57 287.477l258.407 187.736a14.649 14.649 0 0 1 5.32 16.373z"  horiz-adv-x="1024" />

    
    <glyph glyph-name="daoluyunshu" unicode="&#58884;" d="M542.478 668.752h-67.121l-6.165-133.092h79.393l-6.106 133.092zM551.635 469.131h-85.527l-12.327-266.121h110.063l-12.207 266.121zM450.698 136.48l-12.33-266.157h140.735l-12.21 266.157h-116.196zM171.732 572.683c-29.846-88.809-107.036-402.117-143.026-516.393-36.431-115.582-12.813-181.86 76.807-181.86h168.706l127.509 795.526c-72.121 0-127.555 0-127.555 0-55.481-4.219-72.562-8.458-102.442-97.275zM997.389 43.619c-21.364 63.431-106.678 436.043-132.277 516.393-25.61 80.349-76.807 109.946-149.346 109.946h-103.297l128.83-795.526h200.611c85.322 0 76.807 105.758 55.479 169.187z"  horiz-adv-x="1024" />

    
    <glyph glyph-name="converted_file_ebda" unicode="&#58885;" d="M489.278107 883.578698C403.843787 877.822485 330.527811 852.979882 256.908876 804.20355 170.56568 747.247337 103.611834 661.510059 67.559763 562.745562c-62.409467-171.171598-26.357396-363.247337 93.91716-499.881657 43.323077-49.382249 90.887574-85.43432 152.085207-115.12426 44.231953-21.510059 83.616568-33.931361 134.210651-42.71716 33.022485-5.453254 46.049704-6.059172 91.493491-4.847337 59.076923 1.817751 92.402367 7.573964 141.481657 24.539645 78.466272 26.963314 134.513609 62.712426 193.590533 123.910059 65.742012 67.559763 107.853254 147.540828 129.060355 245.39645 5.756213 26.660355 6.665089 39.990533 6.665088 97.552662 0 57.865089-0.908876 70.892308-6.665088 98.461539-21.813018 100.27929-66.953846 184.804734-135.725444 253.273373C767.091124 843.588166 633.183432 893.273373 489.278107 883.578698z m71.498224-43.323077c4.24142-9.088757-3.332544-134.210651-10.906509-183.895858-2.12071-13.027219-1.817751-14.239053 6.968048-20.601183 8.48284-5.756213 13.027219-6.36213 56.653254-6.36213 50.594083 0 59.985799-2.12071 69.377515-15.753846 9.997633-14.239053 4.24142-28.478107-28.478106-69.983432-8.179882-10.906509-15.147929-20.601183-15.147929-21.813018 0-0.908876-3.938462-7.876923-9.088758-15.147929-4.847337-7.271006-9.088757-13.936095-9.088757-15.147929 0-1.211834-3.938462-7.876923-9.088758-15.147929-4.847337-7.271006-9.088757-14.239053-9.088757-15.147929 0-1.211834-2.423669-5.756213-5.756213-9.997633-3.029586-4.544379-8.48284-13.330178-12.118343-19.389349-14.239053-25.145562-18.480473-32.416568-36.35503-60.894675-9.997633-16.359763-18.480473-30.598817-18.480473-31.810651 0-1.211834-8.785799-10.906509-19.389349-21.510059-21.510059-21.207101-28.781065-22.721893-29.689941-5.756213-1.514793 32.719527 2.12071 68.16568 10.300592 103.914793 14.84497 65.742012 16.056805 73.315976 11.815384 78.163313-6.36213 7.876923-29.386982 11.209467-76.951479 11.209468-42.111243 0-46.95858 0.605917-52.714793 6.059172-14.542012 13.330178-14.84497 13.027219 26.963314 82.707692 40.59645 68.16568 70.286391 118.153846 108.459171 182.381065C551.990533 849.344379 551.081657 847.526627 554.414201 847.526627c1.817751 0 4.544379-3.332544 6.36213-7.271006zM309.017751 418.23432c71.801183-77.557396 119.971598-152.388166 141.784616-220.553847 16.96568-53.32071 16.96568-82.101775-0.302959-108.459171-2.726627-4.24142-5.150296-9.997633-5.150296-12.421302 0-7.271006-26.660355-34.23432-40.899408-41.202367-41.505325-19.995266-109.368047-20.298225-153.297041-0.908876-25.751479 11.512426-41.505325 29.992899-54.229586 63.318344-5.453254 15.147929-0.605917 95.734911 6.36213 99.976331 1.514793 0.908876 2.726627 4.24142 2.726627 7.573964 0 3.029586 1.211834 8.179882 2.726628 11.209468 1.514793 2.726627 5.756213 11.209467 9.391716 18.783432 32.113609 63.621302 36.960947 73.921893 43.323076 93.91716 10.906509 33.931361 17.268639 64.227219 17.268639 79.981065 0 7.573964 1.211834 16.96568 3.029586 21.510059 3.635503 9.997633 8.48284 7.573964 27.266272-12.72426z m411.417752-29.9929c18.177515-65.439053 23.933728-78.163314 47.867456-108.156213 10.60355-12.72426 25.448521-33.628402 33.022485-46.049704 7.876923-12.72426 18.177515-26.963314 22.721893-31.810651 11.815385-12.72426 16.662722-32.719527 16.662722-71.195266 0-33.022485 0-33.325444-10.300592-48.473373-5.756213-8.179882-14.84497-19.692308-20.298224-25.751479-5.150296-5.756213-12.72426-17.874556-16.359764-26.357397-4.847337-11.209467-8.48284-16.056805-12.421301-16.056804-5.150296 0-5.756213 2.423669-6.059172 19.08639 0 17.874556-2.726627 38.172781-7.573965 58.168047-1.211834 5.150296-8.785799 18.783432-16.662721 30.598817-18.177515 27.266272-25.145562 39.081657-40.59645 69.074556-6.665089 13.330178-13.936095 24.539645-16.056805 25.448521-6.36213 2.12071-39.990533-34.537278-53.623669-58.471006-17.268639-29.386982-19.389349-39.081657-22.115976-90.584615-1.514793-32.416568-3.332544-45.746746-6.059171-46.655622-5.150296-1.514793-23.630769 18.783432-32.416569 35.749113-13.633136 26.660355-20.298225 54.229586-21.813017 90.887574-1.514793 29.992899-0.605917 37.869822 4.847337 56.956213 15.753846 52.108876 55.744379 111.791716 111.791716 166.627219 19.086391 18.783432 36.35503 33.628402 38.172781 33.022485 1.817751-0.605917 5.150296-7.876923 7.271006-16.056805z"  horiz-adv-x="1024" />

    
    <glyph glyph-name="chengjizhenjumin" unicode="&#58957;" d="M334.571747 325.871487a14.452891 14.452891 0 0 1 14.452891-14.70645h125.638727c7.987124 0 14.452891 6.592547 14.452891 14.83323V367.328464c0 8.240683-6.338987 14.83323-14.452891 14.83323h-125.638727c-7.987124 0-14.452891-6.592547-14.452891-14.706451v-41.583756zM474.663365 662.21815c7.987124 0 14.452891 6.592547 14.452891 14.83323V718.508357c0 8.240683-6.338987 14.83323-14.452891 14.83323h-125.638727c-7.987124 0-14.452891-6.592547-14.452891-14.70645v-41.456977a14.452891 14.452891 0 0 1 14.452891-14.70645h125.638727zM464.013867-89.966077c0 22.440015 2.535595 44.372911 6.972886 65.798688h-107.382444v100.155999h-112.453634v-100.155999H87.731584c-9.381701 0-16.734926 7.480005-16.734927 16.861706V808.014857c0 4.437291 1.648137 8.874582 4.81763 12.044076s7.480005 4.94441 11.917297 4.94441h439.291816c4.437291 0 8.747802-1.774916 11.917296-4.94441s4.94441-7.606785 4.81763-11.917296v-347.376501a101.246304 101.246304 0 0 0 68.080723 26.243407c1.014238 0 1.901696 0 2.915934-0.12678v50.711898a16.89974 16.89974 0 0 0 16.734927 16.861706h272.069332c4.437291 0 8.747802-1.774916 11.790517-4.94441 3.169494-3.169494 4.94441-7.480005 4.94441-11.917296v-49.063761c27.891544-17.749164 52.106475-40.696298 70.996657-67.827164V590.080475c0 19.524081-15.847468 35.371549-35.244769 35.371549H614.628204V860.501671A35.498329 35.498329 0 0 1 579.256655 896H35.371549A35.574396 35.574396 0 0 1 0 860.501671v-920.167388a35.498329 35.498329 0 0 1 35.371549-35.498329h428.895877c-0.12678 1.774916-0.253559 3.549833-0.253559 5.197969zM334.571747 501.334654a14.452891 14.452891 0 0 1 14.452891-14.70645h125.638727c7.987124 0 14.452891 6.592547 14.452891 14.83323v41.456976c0 8.240683-6.338987 14.83323-14.452891 14.83323h-125.638727c-7.987124 0-14.452891-6.592547-14.452891-14.70645v-41.710536zM334.571747 150.28154c0-3.930172 1.521357-7.606785 4.183732-10.395939 2.662375-2.789154 6.465767-4.310511 10.269159-4.310511h125.638727c7.987124 0 14.452891 6.592547 14.452891 14.83323v41.456977c0 8.240683-6.338987 14.83323-14.452891 14.83323h-125.638727c-7.987124 0-14.452891-6.592547-14.452891-14.706451v-41.710536zM280.056457 542.791631c0 8.240683-6.338987 14.83323-14.452891 14.83323h-125.638728c-7.987124 0-14.452891-6.592547-14.45289-14.706451v-41.456976c0-3.803392 1.521357-7.606785 4.183731-10.395939 2.662375-2.789154 6.465767-4.310511 10.269159-4.310512h125.638728c7.987124 0 14.452891 6.592547 14.452891 14.83323v41.203418zM280.056457 367.328464c0 8.240683-6.338987 14.83323-14.452891 14.83323h-125.638728c-7.987124 0-14.452891-6.592547-14.45289-14.706451v-41.456976c0-3.803392 1.521357-7.606785 4.183731-10.395939 2.662375-2.789154 6.465767-4.310511 10.269159-4.310512h125.638728c7.987124 0 14.452891 6.592547 14.452891 14.83323V367.328464zM280.056457 718.381577c0 8.240683-6.338987 14.83323-14.452891 14.83323h-125.638728c-7.987124 0-14.452891-6.592547-14.45289-14.83323v-41.456976c0-3.803392 1.521357-7.606785 4.183731-10.395939 2.789154-2.789154 6.338987-4.310511 10.269159-4.310512h125.638728c7.987124 0 14.452891 6.592547 14.452891 14.83323v41.330197zM139.964838 206.571747c-7.987124 0-14.452891-6.592547-14.45289-14.70645v-41.456977c0-3.803392 1.521357-7.606785 4.183731-10.395939 2.662375-2.789154 6.465767-4.310511 10.269159-4.310511h125.638728c7.987124 0 14.452891 6.592547 14.452891 14.83323v41.456976c0 8.240683-6.338987 14.83323-14.452891 14.83323h-125.638728zM787.682555 463.934629c-38.921382 0-75.180389-12.170856-104.973628-32.835954 0 0-0.12678 0-0.12678-0.126779-16.861706-10.522719-46.781726-8.621023-68.714622-7.353226-20.918658 1.141018-39.048161-14.70645-40.315959-35.625108a38.109991 38.109991 0 0 1 35.625109-40.315959l6.846106-0.380339c-8.367463-21.172217-13.185093-44.119351-13.185094-68.207503 0-55.402749 24.595271-104.973629 63.389873-138.9506-82.406834-43.612232-138.823821-130.329578-138.823821-230.105238 0-21.045438 16.988486-38.033923 38.033923-38.033923s38.033923 16.988486 38.033924 38.033923c0 101.550576 82.660394 184.210969 184.337749 184.21097 101.930915 0 184.718088 82.913953 184.718089 184.718088s-82.913953 184.971648-184.844869 184.971648z m0-293.495109c-59.966819 0-108.650241 48.810202-108.650241 108.650241s48.810202 108.650241 108.650241 108.650241 108.650241-48.810202 108.650242-108.650241-48.683422-108.650241-108.650242-108.650241zM987.867773 76.622508a38.148025 38.148025 0 0 1-53.627832 4.94441 38.148025 38.148025 0 0 1-4.94441-53.627832c27.511205-32.962734 42.597994-74.80005 42.597994-117.905163 0-21.045438 16.988486-38.033923 38.033923-38.033923s38.033923 16.988486 38.033924 38.033923c0.12678 60.854278-21.298997 119.933639-60.093599 166.588585z"  horiz-adv-x="1048" />

    
    <glyph glyph-name="guanxitu" unicode="&#58881;" d="M824.889 213.333c-28.445 0-56.889-11.377-79.645-22.755l-45.51 45.51c22.755 34.134 39.822 73.956 39.822 119.468 0 62.577-28.445 119.466-73.956 153.6l22.756 45.51h22.755c79.645 0 142.222 62.578 142.222 142.223S790.756 839.11 711.111 839.11 568.89 776.533 568.89 696.89c0-51.2 28.444-91.022 62.578-119.467L614.4 537.6c-22.756 11.378-45.511 17.067-73.956 17.067-108.088 0-199.11-91.023-199.11-199.111 0-28.445 5.688-51.2 17.066-73.956l-39.822-17.067c-28.445 34.134-68.267 62.578-119.467 62.578-79.644 0-142.222-62.578-142.222-142.222s62.578-142.222 142.222-142.222 142.222 62.577 142.222 142.222v22.755l45.511 22.756c34.134-45.511 91.023-73.956 153.6-73.956 45.512 0 85.334 17.067 119.467 39.823l45.511-45.511c-11.378-22.756-22.755-51.2-22.755-79.645 0-79.644 62.577-142.222 142.222-142.222S967.11-8.533 967.11 71.11 904.533 213.333 824.89 213.333zM711.11 782.223c45.511 0 85.333-39.823 85.333-85.334s-39.822-85.333-85.333-85.333-85.333 39.822-85.333 85.333 39.822 85.333 85.333 85.333z m-512-682.667c-45.511 0-85.333 39.822-85.333 85.333s39.822 85.333 85.333 85.333 85.333-39.822 85.333-85.333-39.822-85.333-85.333-85.333z m199.111 256c0 79.644 62.578 142.222 142.222 142.222S682.667 435.2 682.667 355.556s-62.578-142.223-142.223-142.223-142.222 62.578-142.222 142.223zM824.89-14.222c-45.511 0-85.333 39.822-85.333 85.333s39.822 85.333 85.333 85.333 85.333-39.822 85.333-85.333-39.822-85.333-85.333-85.333z"  horiz-adv-x="1024" />

    
    <glyph glyph-name="tongzhi" unicode="&#58880;" d="M513.024 830.464q93.184 0 175.616-35.84t143.872-97.28 97.28-143.872 35.84-175.616q0-94.208-35.84-176.64t-97.28-143.872-143.872-97.28-175.616-35.84q-94.208 0-176.64 35.84t-143.872 97.28-97.28 143.872-35.84 176.64q0 93.184 35.84 175.616t97.28 143.872 143.872 97.28 176.64 35.84zM513.024-13.312q80.896 0 152.064 30.72t124.416 83.968 83.968 124.416 30.72 152.064-30.72 152.064-83.968 124.416-124.416 83.968-152.064 30.72q-81.92 0-153.088-30.72t-124.416-83.968-83.968-124.416-30.72-152.064 30.72-152.064 83.968-124.416 124.416-83.968 153.088-30.72zM513.024 705.536q66.56 0 124.928-25.088t102.4-69.12 69.12-102.4 25.088-124.928-25.088-125.44-69.12-102.912-102.4-69.12-124.928-25.088-125.44 25.088-102.912 69.12-69.12 102.912-25.088 125.44 25.088 124.928 69.12 102.4 102.912 69.12 125.44 25.088z"  horiz-adv-x="1024" />

    
    <glyph glyph-name="shexiangtou" unicode="&#58894;" d="M214.4 211.2H105.6v137.6L0 368v-441.6l105.6 35.2v153.6h169.6l92.8 124.8-121.6 64-32-92.8z m550.4-28.8l246.4 156.8-768 505.6H153.6L32 652.8v-64l675.2-409.6h57.6v3.2z m-92.8-32L89.6 528l-60.8-64L704 54.4h60.8l32 32 32 92.8s-89.6-64-92.8-64c-35.2 22.4-64 35.2-64 35.2z"  horiz-adv-x="1024" />

    
    <glyph glyph-name="danxuan" unicode="&#59167;" d="M512 830.016611c-245.919634 0-446.016611-200.095256-446.016611-446.016611 0-245.952318 200.064292-446.016611 446.016611-446.016611S958.016611 138.047682 958.016611 384C958.016611 629.919634 757.952318 830.016611 512 830.016611zM512 1.983389c-210.655557 0-382.016611 171.392017-382.016611 382.016611 0 210.655557 171.359333 382.016611 382.016611 382.016611 210.624593 0 382.016611-171.359333 382.016611-382.016611C894.016611 173.375407 722.624593 1.983389 512 1.983389zM512 543.99914c-88.223841 0-160.00086-71.775299-160.00086-159.99914s71.775299-160.00086 160.00086-160.00086 160.00086 71.775299 160.00086 160.00086S600.223841 543.99914 512 543.99914z"  horiz-adv-x="1024" />

    
    <glyph glyph-name="guanbi1" unicode="&#59171;" d="M557.311759 382.751136l265.280473 263.904314c12.54369 12.480043 12.607338 32.704421 0.127295 45.248112-12.512727 12.576374-32.704421 12.607338-45.248112 0.127295L512.127295 428.095579 249.088241 691.936245c-12.447359 12.480043-32.704421 12.54369-45.248112 0.063647-12.512727-12.480043-12.54369-32.735385-0.063647-45.280796l262.975407-263.775299-265.151458-263.744335c-12.54369-12.480043-12.607338-32.704421-0.127295-45.248112 6.239161-6.271845 14.463432-9.440452 22.687703-9.440452 8.160624 0 16.319527 3.103239 22.560409 9.311437l265.216826 263.807983 265.440452-266.240344c6.239161-6.271845 14.432469-9.407768 22.65674-9.407768 8.191587 0 16.352211 3.135923 22.591372 9.34412 12.512727 12.480043 12.54369 32.704421 0.063647 45.248112L557.311759 382.751136z"  horiz-adv-x="1024" />

    
    <glyph glyph-name="xuanze" unicode="&#59182;" d="M887.904744 597.79148c-12.863647 12.063755-33.151673 11.487488-45.215428-1.408843L415.935493 142.016181 182.815858 371.712619c-12.607338 12.416396-32.8644 12.287381-45.280796-0.319957-12.416396-12.576374-12.256417-32.8644 0.352641-45.248112l256.479935-252.671415c0.096331-0.096331 0.223626-0.127295 0.319957-0.223626s0.127295-0.223626 0.223626-0.319957c2.016073-1.919742 4.448434-3.008628 6.784464-4.288456 1.152533-0.672598 2.143368-1.663432 3.359548-2.143368 3.775837-1.47249 7.775299-2.239699 11.743798-2.239699 4.192125 0 8.384249 0.832576 12.287381 2.496009 1.312512 0.543583 2.33603 1.663432 3.552211 2.368714 2.399677 1.408843 4.895686 2.59234 6.944443 4.67206 0.096331 0.096331 0.127295 0.25631 0.223626 0.352641 0.063647 0.096331 0.192662 0.127295 0.287273 0.223626L889.277463 552.579492C901.439269 565.408735 900.768391 585.664077 887.904744 597.79148z"  horiz-adv-x="1024" />

    
    <glyph glyph-name="yuanxingweixuanzhong" unicode="&#59183;" d="M512-64c-247.039484 0-448 200.960516-448 448S264.960516 832 512 832 960 631.039484 960 384 759.039484-64 512-64zM512 768c-211.744443 0-384-172.255557-384-384s172.255557-384 384-384 384 172.255557 384 384S723.744443 768 512 768z"  horiz-adv-x="1024" />

    
    <glyph glyph-name="guanbi2fill" unicode="&#59172;" d="M512 832c-247.00852 0-448-200.960516-448-448S264.960516-64 512-64c247.00852 0 448 200.960516 448 448S759.039484 832 512 832zM694.752211 246.015966c12.480043-12.54369 12.447359-32.768069-0.063647-45.248112-6.239161-6.208198-14.399785-9.34412-22.591372-9.34412-8.224271 0-16.415858 3.135923-22.65674 9.407768l-137.60043 138.016718-138.047682-136.576912c-6.239161-6.14455-14.368821-9.247789-22.496761-9.247789-8.255235 0-16.479505 3.168606-22.751351 9.504099-12.416396 12.576374-12.320065 32.800753 0.25631 45.248112l137.887703 136.384249-137.376804 137.824056c-12.480043 12.512727-12.447359 32.768069 0.063647 45.248112 12.512727 12.512727 32.735385 12.447359 45.248112-0.063647l137.567746-137.984034 138.047682 136.575192c12.54369 12.447359 32.831716 12.320065 45.248112-0.25631 12.447359-12.576374 12.320065-32.831716-0.25631-45.248112L557.344443 383.872705 694.752211 246.015966z"  horiz-adv-x="1024" />

    
    <glyph glyph-name="yuanxingxuanzhongfill" unicode="&#59184;" d="M512 830.016611c-245.919634 0-446.016611-200.095256-446.016611-446.016611 0-245.952318 200.064292-446.016611 446.016611-446.016611S958.016611 138.047682 958.016611 384C958.016611 629.919634 757.952318 830.016611 512 830.016611zM727.231286 457.567746 471.00766 198.560839c-0.063647-0.063647-0.192662-0.096331-0.25631-0.192662-0.096331-0.063647-0.096331-0.192662-0.192662-0.25631-2.048757-1.983389-4.575729-3.19957-6.944443-4.544765-1.183497-0.672598-2.143368-1.696116-3.392232-2.176052-3.839484-1.536138-7.904314-2.33603-11.967424-2.33603-4.095794 0-8.224271 0.799892-12.096439 2.399677-1.279828 0.543583-2.303346 1.632469-3.519527 2.303346-2.368714 1.343475-4.832039 2.528692-6.880796 4.544765-0.063647 0.063647-0.096331 0.192662-0.159978 0.25631-0.063647 0.096331-0.192662 0.096331-0.25631 0.192662l-126.016611 129.503454c-12.320065 12.672705-12.032791 32.928047 0.639914 45.248112 12.672705 12.287381 32.895364 12.063755 45.248112-0.639914l103.26354-106.112189 233.279613 235.839269c12.416396 12.576374 32.704421 12.703669 45.248112 0.25631C739.520387 490.399462 739.647682 470.14412 727.231286 457.567746z"  horiz-adv-x="1024" />

    
    <glyph glyph-name="queren-zhengque" unicode="&#58888;" d="M79.288 496c19.2 0 38.4-9.6 54.4-25.6l240-249.6c12.8-16 19.2-16 35.2 0 147.2 153.6 294.4 304 441.6 457.6 16 16 32 35.2 48 51.2 28.8 28.8 70.4 32 99.2 6.4 32-25.6 38.4-73.6 9.6-105.6-32-38.4-67.2-73.6-102.4-108.8-150.4-156.8-300.8-313.6-454.4-470.4-38.4-38.4-80-41.6-115.2-6.4-105.6 108.8-211.2 217.6-313.6 326.4-22.4 25.6-28.8 54.4-12.8 83.2 12.8 25.6 35.2 41.6 70.4 41.6z"  horiz-adv-x="1026" />

    
    <glyph glyph-name="tongbushujukumoxing" unicode="&#58995;" d="M981.252681 128.131977 639.978004 128.131977C616.408721 128.131977 597.318669 147.22203 597.318669 170.791312 580.660199 187.449782 573.898694 207.712966 582.238594 216.031536L702.900522 336.693464C711.219093 345.033364 731.482276 338.27186 748.140747 321.613389 764.799217 304.954919 771.560721 284.691735 763.220821 276.373165L700.298303 213.450647 981.252681 213.450647C1004.821963 213.450647 1023.912015 194.360594 1023.912015 170.791312 1023.912015 147.22203 1004.821963 128.131977 981.252681 128.131977ZM853.274677 362.758318C853.274677 362.758318 853.274677 362.758318 853.274677 362.758318L853.274677 341.42865 847.366359 341.42865C839.964964 328.737498 826.356637 320.098983 810.615342 320.098983 794.874048 320.098983 781.26572 328.737498 773.864325 341.42865L767.956008 341.42865 767.956008 418.38609C690.273359 384.621227 566.433311 362.758318 426.681331 362.758318 286.929351 362.758318 163.089302 384.621227 85.406654 418.38609L85.406654 256.109981 113.369848 256.109981C144.02058 231.772831 277.394989 213.450647 437.346164 213.450647 455.519041 213.450647 473.286654 213.706603 490.670333 214.175855L490.670333 213.450647 490.670333 213.450647C514.239615 213.450647 533.329667 194.360594 533.329667 170.791312 533.329667 147.22203 514.239615 128.131977 490.670333 128.131977 487.02296 128.131977 483.567553 128.729208 480.176136 129.582395 462.600491 128.814527 444.918196 128.131977 426.681331 128.131977 286.929351 128.131977 163.089302 149.994886 85.406654 183.75975L85.406654 0.153974 0.087985 0.153974 0.087985 768.021996 1.751699 768.021996C18.559477 839.58303 202.165253 896 426.681331 896 651.197409 896 834.803185 839.58303 851.610963 768.021996L853.274677 768.021996 853.274677 757.357163C853.274677 757.357163 853.274677 757.357163 853.274677 757.357163 853.274677 757.357163 853.274677 757.357163 853.274677 757.357163L853.274677 362.758318C853.274677 362.758318 853.274677 362.758318 853.274677 362.758318ZM767.956008 757.357163C767.934678 786.813433 619.928117 810.681331 437.346164 810.681331 254.764212 810.681331 106.736321 786.813433 106.736321 757.357163 106.736321 727.900892 254.764212 704.032994 437.346164 704.032994 619.928117 704.032994 767.934678 727.900892 767.956008 757.357163L767.956008 757.357163ZM767.956008 674.427416C690.145381 640.662553 566.454641 618.714325 426.681331 618.714325 286.908021 618.714325 163.21728 640.662553 85.406654 674.427416L85.406654 490.736321 113.369848 490.736321C144.02058 466.399171 277.394989 448.076987 437.346164 448.076987 597.29734 448.076987 730.671749 466.399171 761.322481 490.736321L767.956008 490.736321 767.956008 674.427416ZM437.346164-42.505361C455.519041-42.505361 473.286654-42.249405 490.670333-41.780152L490.670333-42.505361 490.670333-42.505361C514.239615-42.505361 533.329667-61.595413 533.329667-85.164696 533.329667-108.733978 514.239615-127.82403 490.670333-127.82403 487.065619-127.82403 483.610213-127.248129 480.261455-126.394943 462.64315-127.141481 444.939526-127.82403 426.681331-127.82403 202.165253-127.82403 18.559477-71.40706 1.751699 0.153974L113.369848 0.153974C144.02058-24.183177 277.394989-42.505361 437.346164-42.505361ZM618.648336 85.472643 962.589222 85.472643C986.158504 85.472643 1005.248556 66.38259 1005.248556 42.813308 1005.248556 42.642671 1005.205897 42.493363 1005.205897 42.322726 1021.907026 25.600267 1028.689861 5.358412 1020.285972-2.981488L898.173626-124.411283C889.748408-132.793843 869.250598-125.989679 852.378831-109.22456 835.528394-92.459442 828.7029-72.06828 837.128119-63.685721L901.330417 0.153974 618.648336 0.153974C595.079054 0.153974 575.989002 19.244026 575.989002 42.813308 575.989002 66.38259 595.079054 85.472643 618.648336 85.472643Z"  horiz-adv-x="1024" />

    
    <glyph glyph-name="tubiao01" unicode="&#58896;" d="M900.13268 543.787405c-17.746424 30.688359-56.998953 41.124182-87.436598 23.438133-30.621843-17.622603-41.119065-56.748239-23.43404-87.373152 27.935627-48.373384 42.685769-103.682835 42.685769-159.868247 0-176.434783-143.558565-319.990278-319.991302-319.990278-176.43069 0-319.985162 143.555495-319.985162 319.990278 0 176.43069 143.554472 319.988232 319.985162 319.988232 0.099262 0 0.198524-0.00307 0.297786-0.00307 0.046049-38.789987 0.079819-68.711879 0.079819-72.371273 0-30.746688-0.312113-55.621563 32.496566-55.621563 16.626912 0 31.561251 6.498085 42.312257 16.876602l0.24969-0.125868c0 0 167.056051 156.99374 174.992925 163.492849 4.005276 3.375934 5.689662 7.625784 5.563794 11.749766-0.064469 3.998113-1.745785 7.875475-4.749231 10.624114C757.072472 720.344987 585.889369 880.468041 585.889369 880.468041l-0.310066-0.25276c-10.685513 9.621259-25.124565 15.748903-41.125205 15.748903-32.809702 0-32.43312-24.875898-32.43312-55.622587 0-3.524316 0.03377-33.492257 0.079819-72.375367-0.049119 0-0.097215 0.001023-0.146335 0.001023-247.057202 0-447.980045-200.991406-447.980045-447.983115 0-246.993756 200.923867-447.984139 447.980045-447.984139 246.994779 0 447.988232 200.990382 447.988232 447.984139C959.943717 398.60483 939.25627 475.978095 900.13268 543.787405z"  horiz-adv-x="1024" />

    
    <glyph glyph-name="icon-chaxun" unicode="&#58930;" d="M771.010567 480.123244c0 194.228633-157.444868 351.723643-351.770716 351.723644-194.228633 0-351.675548-157.49501-351.675548-351.723644 0-194.23068 157.445892-351.724667 351.675548-351.724666 194.325847 0.001023 351.770715 157.49501 351.770716 351.724666zM419.239851 216.319c-145.671731 0-263.709077 118.085442-263.709077 263.805268 0 145.671731 118.037347 263.804245 263.709077 263.804244 145.769968 0 263.804245-118.132514 263.804245-263.804244 0-145.721873-118.034277-263.805268-263.804245-263.805268zM933.225065 71.230554L741.819734 262.636908c-27.53717-45.831838-66.071811-84.271312-112.003933-111.808482L821.319369-40.676166c30.946826-30.894637 81.060177-30.894637 111.904673 0 30.946826 30.848589 30.946826 81.060177 0.001023 111.90672z"  horiz-adv-x="1024" />

    
    <glyph glyph-name="xinzeng" unicode="&#59100;" d="M966.851 457.866h-376.615v376.617h-149.453v-376.617h-379.61v-149.451h379.61v-379.61h149.451v379.61h376.617v149.451zM966.851 457.866z"  horiz-adv-x="1024" />

    
    <glyph glyph-name="-jinzhi" unicode="&#58889;" d="M868.352 36.352c87.552 89.6 141.824 212.48 141.824 347.648 0 274.432-223.232 498.176-498.176 498.176-135.168 0-258.048-54.272-347.648-141.824-1.536-1.024-3.072-2.56-4.608-4.096s-2.56-3.072-4.096-4.608C68.096 642.048 13.824 519.168 13.824 384c0-274.432 223.232-498.176 498.176-498.176 135.168 0 258.048 54.272 347.648 141.824 1.536 1.024 3.072 2.56 4.608 4.096 1.536 1.536 2.56 3.072 4.096 4.608z m18.432 347.648c0-81.408-26.112-156.16-70.144-217.6l-522.24 522.24c61.44 44.032 136.704 70.144 217.6 70.144 206.848 0 374.784-167.936 374.784-374.784z m-749.568 0c0 81.408 26.112 156.16 70.144 217.6l522.752-522.752c-61.44-44.032-136.704-70.144-217.6-70.144-207.36 0.512-375.296 168.448-375.296 375.296z"  horiz-adv-x="1024" />

    
    <glyph glyph-name="guanbi" unicode="&#58922;" d="M895.423623 671.567461 607.855138 384l286.901289-297.699216 0.666172-85.723384-95.856162 0L512 288.143838 224.432539 0.576377l-95.856162 0 0 95.856162 287.567461 287.567461L128.576377 671.567461l0 95.856162 95.856162 0 287.567461-287.567461 287.567461 287.567461 95.856162 0L895.423623 671.567461z"  horiz-adv-x="1024" />

    


  </font>
</defs>
</svg>
